<svg width="14" height="14" viewBox="0 0 14 14" fill="none" xmlns="http://www.w3.org/2000/svg">
<g clip-path="url(#clip0_8201_368)">
<path d="M7.00274 3.85537C5.26368 3.85537 3.86094 5.25811 3.86094 6.99717C3.86094 8.73623 5.26368 10.139 7.00274 10.139C8.7418 10.139 10.1445 8.73623 10.1445 6.99717C10.1445 5.25811 8.7418 3.85537 7.00274 3.85537ZM7.00274 9.03975C5.87891 9.03975 4.96016 8.12373 4.96016 6.99717C4.96016 5.87061 5.87618 4.95459 7.00274 4.95459C8.1293 4.95459 9.04532 5.87061 9.04532 6.99717C9.04532 8.12373 8.12657 9.03975 7.00274 9.03975ZM11.0059 3.72686C11.0059 4.13428 10.6777 4.45967 10.2731 4.45967C9.86563 4.45967 9.54024 4.13154 9.54024 3.72686C9.54024 3.32217 9.86837 2.99404 10.2731 2.99404C10.6777 2.99404 11.0059 3.32217 11.0059 3.72686ZM13.0867 4.47061C13.0402 3.48896 12.816 2.61943 12.0969 1.90303C11.3805 1.18662 10.5109 0.962402 9.5293 0.913184C8.51758 0.855762 5.48516 0.855762 4.47344 0.913184C3.49454 0.959668 2.62501 1.18389 1.90587 1.90029C1.18672 2.6167 0.96524 3.48623 0.916022 4.46787C0.8586 5.47959 0.8586 8.51201 0.916022 9.52373C0.962506 10.5054 1.18672 11.3749 1.90587 12.0913C2.62501 12.8077 3.4918 13.0319 4.47344 13.0812C5.48516 13.1386 8.51758 13.1386 9.5293 13.0812C10.5109 13.0347 11.3805 12.8104 12.0969 12.0913C12.8133 11.3749 13.0375 10.5054 13.0867 9.52373C13.1441 8.51201 13.1441 5.48232 13.0867 4.47061ZM11.7797 10.6093C11.5664 11.1452 11.1535 11.5581 10.6149 11.7741C9.80821 12.094 7.89415 12.0202 7.00274 12.0202C6.11133 12.0202 4.19454 12.0913 3.39063 11.7741C2.85469 11.5608 2.4418 11.1479 2.22579 10.6093C1.90587 9.80264 1.97969 7.88857 1.97969 6.99717C1.97969 6.10576 1.9086 4.18896 2.22579 3.38506C2.43907 2.84912 2.85196 2.43623 3.39063 2.22021C4.19727 1.90029 6.11133 1.97412 7.00274 1.97412C7.89415 1.97412 9.81094 1.90303 10.6149 2.22021C11.1508 2.4335 11.5637 2.84639 11.7797 3.38506C12.0996 4.1917 12.0258 6.10576 12.0258 6.99717C12.0258 7.88857 12.0996 9.80537 11.7797 10.6093Z" fill="#BBBBBB"/>
</g>
<defs>
<clipPath id="clip0_8201_368">
<rect width="14" height="14" fill="white"/>
</clipPath>
</defs>
</svg>
