<svg width="14" height="14" viewBox="0 0 14 14" fill="none" xmlns="http://www.w3.org/2000/svg">
<path d="M3.61703 12.25H1.07734V4.07146H3.61703V12.25ZM2.34582 2.95583C1.53371 2.95583 0.875 2.28317 0.875 1.47106C0.875 1.08098 1.02996 0.70687 1.30579 0.431037C1.58163 0.155205 1.95573 0.000244141 2.34582 0.000244141C2.73591 0.000244141 3.11001 0.155205 3.38585 0.431037C3.66168 0.70687 3.81664 1.08098 3.81664 1.47106C3.81664 2.28317 3.15766 2.95583 2.34582 2.95583ZM13.1223 12.25H10.588V8.26872C10.588 7.31989 10.5689 6.1031 9.26762 6.1031C7.94719 6.1031 7.74484 7.13395 7.74484 8.20036V12.25H5.20789V4.07146H7.64367V5.18708H7.67922C8.01828 4.5445 8.84652 3.86638 10.0822 3.86638C12.6525 3.86638 13.125 5.55896 13.125 7.75739V12.25H13.1223Z" fill="#BBBBBB"/>
</svg>
