<svg width="14" height="14" viewBox="0 0 14 14" fill="none" xmlns="http://www.w3.org/2000/svg">
<path d="M13.3597 3.7936C13.207 3.21878 12.7572 2.76606 12.1861 2.61243C11.1509 2.33325 6.99999 2.33325 6.99999 2.33325C6.99999 2.33325 2.84909 2.33325 1.81389 2.61243C1.24278 2.76609 0.792984 3.21878 0.640321 3.7936C0.362946 4.83551 0.362946 7.00935 0.362946 7.00935C0.362946 7.00935 0.362946 9.18319 0.640321 10.2251C0.792984 10.7999 1.24278 11.2338 1.81389 11.3874C2.84909 11.6666 6.99999 11.6666 6.99999 11.6666C6.99999 11.6666 11.1509 11.6666 12.1861 11.3874C12.7572 11.2338 13.207 10.7999 13.3597 10.2251C13.637 9.18319 13.637 7.00935 13.637 7.00935C13.637 7.00935 13.637 4.83551 13.3597 3.7936ZM5.6424 8.98303V5.03566L9.11175 7.0094L5.6424 8.98303Z" fill="#BBBBBB"/>
</svg>
