<svg width="36" height="31" viewBox="0 0 36 31" fill="none" xmlns="http://www.w3.org/2000/svg">
<path d="M1.33331 8.33329V26.6666C1.33331 28.5 2.83331 30 4.66665 30H28M11.3333 23.3333H31.3333C32.2174 23.3333 33.0652 22.9821 33.6903 22.357C34.3155 21.7319 34.6666 20.884 34.6666 20V9.99996C34.6666 9.1159 34.3155 8.26806 33.6903 7.64294C33.0652 7.01781 32.2174 6.66663 31.3333 6.66663H24.7833C24.2343 6.66379 23.6945 6.52538 23.2118 6.26369C22.7292 6.00201 22.3186 5.62516 22.0166 5.16663L20.65 3.16663C20.348 2.70809 19.9375 2.33124 19.4548 2.06956C18.9722 1.80788 18.4323 1.66947 17.8833 1.66663H11.3333C10.4493 1.66663 9.60141 2.01782 8.97629 2.64294C8.35117 3.26806 7.99998 4.1159 7.99998 4.99996V20C7.99998 21.8333 9.49998 23.3333 11.3333 23.3333Z" stroke="url(#paint0_linear_8295_134)" stroke-width="1.65" stroke-linecap="round" stroke-linejoin="round"/>
<defs>
<linearGradient id="paint0_linear_8295_134" x1="1" y1="2" x2="35" y2="30" gradientUnits="userSpaceOnUse">
<stop stop-color="#43AF7B"/>
<stop offset="1" stop-color="#1ABC9C"/>
</linearGradient>
</defs>
</svg>
