<svg width="210" height="200" viewBox="0 0 210 200" fill="none" xmlns="http://www.w3.org/2000/svg">
<g clip-path="url(#clip0_8192_613)">
<path d="M188.485 193.76C189.275 193.81 189.711 192.829 189.114 192.257L189.054 192.021C189.062 192.002 189.07 191.983 189.078 191.965C189.876 190.061 192.581 190.074 193.373 191.981C194.075 193.672 194.969 195.367 195.189 197.156C195.288 197.945 195.244 198.75 195.069 199.524C196.714 195.929 197.581 192.003 197.581 188.055C197.581 187.063 197.526 186.071 197.415 185.082C197.324 184.272 197.198 183.468 197.035 182.671C196.154 178.363 194.247 174.259 191.496 170.832C190.173 170.109 189.07 168.978 188.404 167.624C188.164 167.135 187.977 166.61 187.888 166.074C188.038 166.094 188.455 163.801 188.342 163.661C188.552 163.343 188.927 163.184 189.156 162.874C190.296 161.329 191.865 161.599 192.685 163.698C194.436 164.581 194.452 166.047 193.378 167.456C192.695 168.353 192.601 169.566 192.001 170.526C192.063 170.605 192.127 170.681 192.189 170.76C193.32 172.211 194.299 173.771 195.123 175.409C194.89 173.588 195.234 171.394 195.821 169.98C196.489 168.369 197.741 167.012 198.843 165.619C200.167 163.946 202.883 164.676 203.116 166.797C203.118 166.818 203.121 166.838 203.123 166.859C202.959 166.951 202.799 167.049 202.642 167.153C201.748 167.744 202.057 169.13 203.116 169.293L203.14 169.297C203.081 169.887 202.98 170.471 202.832 171.046C204.246 176.516 201.193 178.508 196.833 178.597C196.737 178.646 196.643 178.696 196.547 178.743C196.988 179.986 197.341 181.262 197.603 182.555C197.837 183.697 198 184.852 198.091 186.012C198.205 187.475 198.195 188.946 198.072 190.407L198.079 190.355C198.392 188.746 199.266 187.243 200.534 186.202C202.424 184.65 205.093 184.078 207.131 182.831C208.113 182.23 209.37 183.006 209.199 184.144L209.19 184.198C208.887 184.322 208.591 184.465 208.305 184.625C208.141 184.718 207.98 184.816 207.824 184.919C206.93 185.511 207.239 186.896 208.298 187.06L208.322 187.063C208.339 187.066 208.354 187.068 208.371 187.071C207.851 188.307 207.125 189.454 206.217 190.444C205.333 195.218 201.535 195.671 197.472 194.281H197.47C197.025 196.215 196.376 198.106 195.542 199.907H188.658C188.633 199.83 188.611 199.752 188.589 199.675C189.225 199.715 189.867 199.677 190.494 199.562C189.983 198.935 189.472 198.303 188.961 197.676C188.949 197.664 188.939 197.652 188.929 197.639C188.67 197.319 188.409 197 188.15 196.679L188.149 196.679C188.133 195.694 188.251 194.713 188.485 193.76Z" fill="#F2F2F2"/>
<path d="M61.8184 199.545C61.8184 199.798 62.0208 200 62.273 200H208.706C208.959 200 209.161 199.798 209.161 199.545C209.161 199.293 208.959 199.091 208.706 199.091H62.273C62.0209 199.091 61.8184 199.293 61.8184 199.545Z" fill="#CCCCCC"/>
<path d="M84.0382 199.806H16.6362C8.41775 199.806 1.73145 193.12 1.73145 184.901V40.0499C1.73145 31.8314 8.41775 25.1451 16.6362 25.1451H84.0382C92.2565 25.1451 98.9428 31.8314 98.9428 40.0499V184.901C98.9428 193.12 92.2565 199.806 84.0382 199.806Z" fill="#3F3D56"/>
<path d="M98.9428 78.4262C98.595 78.4262 98.3123 78.709 98.3123 79.0568V99.2342C98.3123 99.582 98.595 99.8648 98.9428 99.8648C99.2905 99.8648 99.5733 99.582 99.5733 99.2342V79.0568C99.5733 78.709 99.2905 78.4262 98.9428 78.4262Z" fill="#3F3D56"/>
<path d="M97.5243 40.05V184.899C97.5243 192.052 91.9566 197.904 84.9166 198.358H84.9134C84.8094 198.364 84.7053 198.37 84.5981 198.374C84.4121 198.383 84.2261 198.386 84.037 198.386C84.037 198.386 83.3434 198.336 82.076 198.241C80.7959 198.147 78.9327 198.005 76.6091 197.819C75.9124 197.765 75.1778 197.705 74.4022 197.642C72.8574 197.516 71.1612 197.377 69.3421 197.22C68.617 197.16 67.8666 197.094 67.1005 197.027C63.1848 196.69 58.7994 196.296 54.1743 195.848C53.3925 195.776 52.6043 195.7 51.8098 195.621C51.6017 195.599 51.3905 195.58 51.1792 195.558C47.8815 195.234 3.15039 186.589 3.15039 184.899V40.05C3.15039 32.6001 9.18787 26.5627 16.6378 26.5627H24.6898C25.9761 26.5627 27.0102 27.5652 27.1206 28.8484C27.13 28.9335 27.1395 29.0186 27.1553 29.1038C27.3886 30.3932 28.5708 31.2918 29.8824 31.2918H70.7924C72.1039 31.2918 73.2862 30.3932 73.5195 29.1038C73.5352 29.0186 73.5447 28.9335 73.5541 28.8484C73.6645 27.5652 74.6986 26.5627 75.9849 26.5627H84.037C91.4868 26.5627 97.5243 32.6001 97.5243 40.05Z" fill="white"/>
<path d="M1.41619 63.2932C1.06843 63.2932 0.785645 63.576 0.785645 63.9237V68.9681C0.785645 69.3158 1.06844 69.5986 1.41619 69.5986C1.76394 69.5986 2.04673 69.3158 2.04673 68.9681V63.9237C2.04673 63.5759 1.76394 63.2932 1.41619 63.2932Z" fill="#3F3D56"/>
<path d="M1.41619 78.4262C1.06843 78.4262 0.785645 78.709 0.785645 79.0568V88.8302C0.785645 89.178 1.06844 89.4608 1.41619 89.4608C1.76394 89.4608 2.04673 89.178 2.04673 88.8302V79.0568C2.04673 78.709 1.76394 78.4262 1.41619 78.4262Z" fill="#3F3D56"/>
<path d="M1.41619 92.2982C1.06843 92.2982 0.785645 92.581 0.785645 92.9288V102.702C0.785645 103.05 1.06844 103.333 1.41619 103.333C1.76394 103.333 2.04673 103.05 2.04673 102.702V92.9288C2.04673 92.581 1.76394 92.2982 1.41619 92.2982Z" fill="#3F3D56"/>
<path d="M24.4703 28.7708H12.4117C12.3463 28.7708 12.2932 28.8239 12.2932 28.8893V30.2287C12.2932 30.2941 12.3463 30.3472 12.4117 30.3472H24.4703C24.5358 30.3472 24.5888 30.2941 24.5888 30.2287V28.8893C24.5888 28.8239 24.5358 28.7708 24.4703 28.7708Z" fill="#E6E6E6"/>
<path d="M77.9772 30.3472C78.6736 30.3472 79.2382 29.7826 79.2382 29.0861C79.2382 28.3896 78.6736 27.825 77.9772 27.825C77.2807 27.825 76.7161 28.3896 76.7161 29.0861C76.7161 29.7826 77.2807 30.3472 77.9772 30.3472Z" fill="#E6E6E6"/>
<path d="M81.4452 30.3472C82.1417 30.3472 82.7063 29.7826 82.7063 29.0861C82.7063 28.3896 82.1417 27.825 81.4452 27.825C80.7487 27.825 80.1841 28.3896 80.1841 29.0861C80.1841 29.7826 80.7487 30.3472 81.4452 30.3472Z" fill="#E6E6E6"/>
<path d="M84.9132 30.3472C85.6097 30.3472 86.1743 29.7826 86.1743 29.0861C86.1743 28.3896 85.6097 27.825 84.9132 27.825C84.2167 27.825 83.6521 28.3896 83.6521 29.0861C83.6521 29.7826 84.2167 30.3472 84.9132 30.3472Z" fill="#E6E6E6"/>
<path d="M76.9225 114.046H23.4364C22.5938 114.046 21.9082 113.36 21.9082 112.518C21.9082 111.675 22.5938 110.99 23.4364 110.99H76.9225C77.7651 110.99 78.4506 111.675 78.4506 112.518C78.4506 113.36 77.7651 114.046 76.9225 114.046Z" fill="#E6E6E6"/>
<path d="M50.3714 173.263C62.6092 173.263 72.5299 163.342 72.5299 151.104C72.5299 138.866 62.6092 128.946 50.3714 128.946C38.1336 128.946 28.2129 138.866 28.2129 151.104C28.2129 163.342 38.1336 173.263 50.3714 173.263Z" fill="#43AF7B"/>
<path d="M53.8929 143.869C52.0228 143.946 49.9087 144.074 48.5265 145.509C47.3257 146.756 47.0625 148.606 48.2803 149.937C49.5012 151.271 51.3995 151.452 52.8068 152.493C54.4594 153.715 54.2173 156.133 52.6181 157.292C50.7324 158.658 48.2976 158.021 46.5736 156.721C46.1318 156.388 45.7029 157.134 46.1397 157.464C47.6843 158.628 49.6998 159.276 51.6096 158.719C53.3332 158.216 54.6692 156.811 54.8051 154.983C54.87 154.11 54.6219 153.225 54.0794 152.536C53.5067 151.809 52.6819 151.362 51.848 150.997C50.4126 150.371 47.9409 149.56 48.3583 147.519C48.8642 145.046 51.8746 144.812 53.8929 144.729C54.4441 144.706 54.4469 143.846 53.8929 143.869Z" fill="white"/>
<path d="M50.4237 142.699L50.3413 161.57C50.3389 162.123 51.1985 162.124 51.2009 161.57L51.2833 142.699C51.2857 142.146 50.4261 142.145 50.4237 142.699Z" fill="white"/>
<path d="M167.771 0H58.5223C54.5147 0 51.2559 3.25882 51.2559 7.26645V82.1317C51.2559 86.1393 54.5147 89.3982 58.5223 89.3982H167.771C171.779 89.3982 175.038 86.1393 175.038 82.1317V7.26645C175.038 3.25882 171.779 0 167.771 0Z" fill="white"/>
<path d="M112.644 44.5141C119.396 44.5141 124.87 39.0406 124.87 32.2887C124.87 25.5368 119.396 20.0633 112.644 20.0633C105.892 20.0633 100.419 25.5368 100.419 32.2887C100.419 39.0406 105.892 44.5141 112.644 44.5141Z" fill="#43AF7B"/>
<path d="M114.964 26.8331C113.45 26.8955 111.747 26.9914 110.602 28.1176C109.654 29.0505 109.322 30.5027 110.193 31.6011C111.111 32.7576 112.637 32.977 113.834 33.716C114.578 34.1753 115.072 34.8712 115.088 35.7654C115.103 36.6026 114.716 37.3848 114.07 37.9095C112.486 39.1969 110.324 38.664 108.825 37.5381C108.53 37.3166 108.244 37.8139 108.536 38.0329C109.778 38.9654 111.376 39.507 112.921 39.1058C114.344 38.7365 115.489 37.6177 115.643 36.1227C115.806 34.5471 114.771 33.4742 113.43 32.8587C112.203 32.2961 110.053 31.6967 110.255 29.9489C110.513 27.7267 113.234 27.4775 114.964 27.4062C115.331 27.3911 115.333 26.8179 114.964 26.8331Z" fill="white"/>
<path d="M112.334 25.794L112.265 41.5182C112.264 41.887 112.837 41.8874 112.838 41.5182L112.907 25.794C112.909 25.4252 112.335 25.4247 112.334 25.794Z" fill="white"/>
<path d="M167.771 0H58.5223C54.5147 0 51.2559 3.25882 51.2559 7.26645V82.1317C51.2559 86.1393 54.5147 89.3982 58.5223 89.3982H167.771C171.779 89.3982 175.038 86.1393 175.038 82.1317V7.26645C175.038 3.25882 171.779 0 167.771 0ZM174.274 82.1317C174.274 85.7191 171.359 88.6341 167.771 88.6341H58.5223C54.9349 88.6341 52.0199 85.7191 52.0199 82.1317V7.26645C52.0199 3.67908 54.9349 0.764087 58.5223 0.764087H167.771C171.359 0.764087 174.274 3.67908 174.274 7.26645V82.1317Z" fill="#3F3D56"/>
<path d="M100.551 7.39253H89.8306C89.2919 7.39253 88.8525 7.83189 88.8525 8.37057C88.8525 8.91306 89.2919 9.35242 89.8306 9.35242H100.551C101.089 9.35242 101.529 8.91306 101.529 8.37057C101.529 7.8319 101.089 7.39253 100.551 7.39253Z" fill="#E6E6E6"/>
<path d="M118.507 7.39253H107.787C107.248 7.39253 106.809 7.83189 106.809 8.37057C106.809 8.91306 107.248 9.35242 107.787 9.35242H118.507C119.045 9.35242 119.485 8.91306 119.485 8.37057C119.485 7.8319 119.045 7.39253 118.507 7.39253Z" fill="#E6E6E6"/>
<path d="M136.463 7.39253H125.743C125.204 7.39253 124.765 7.83189 124.765 8.37057C124.765 8.91306 125.204 9.35242 125.743 9.35242H136.463C137.002 9.35242 137.441 8.91306 137.441 8.37057C137.441 7.8319 137.002 7.39253 136.463 7.39253Z" fill="#E6E6E6"/>
<path d="M154.144 51.3909H72.1496C68.738 51.3909 65.9644 54.1645 65.9644 57.5762V63.1616C65.9644 66.5733 68.738 69.3469 72.1496 69.3469H154.144C157.555 69.3469 160.329 66.5733 160.329 63.1616V57.5762C160.329 54.1645 157.555 51.3909 154.144 51.3909Z" fill="#43AF7B"/>
<path d="M28.7433 80.7991L25.5991 79.3097C26.8887 81.1094 28 83.9202 28.5949 86.1568C29.6021 84.0734 31.2259 81.5241 32.8332 80.0014L29.5101 80.8563C31.5578 70.8208 39.2595 63.6163 48.0791 63.6163V62.8522C38.8668 62.8522 30.834 70.3584 28.7433 80.7991Z" fill="#3F3D56"/>
<path d="M43.2148 96.09H23.3485C22.5059 96.09 21.8203 95.4044 21.8203 94.5618C21.8203 93.7192 22.5059 93.0336 23.3485 93.0336H43.2148C44.0574 93.0336 44.7429 93.7192 44.7429 94.5618C44.7429 95.4044 44.0574 96.09 43.2148 96.09Z" fill="#E6E6E6"/>
<path d="M175.371 91.1128L175.171 106.715L171.289 120.624L168.186 119.466L169.563 106.717L169.382 89.4653L175.371 91.1128Z" fill="#FFB6B6"/>
<path d="M171.276 122.866C171.64 120.866 170.972 119.07 169.785 118.854C168.597 118.637 167.34 120.083 166.975 122.083C166.611 124.083 167.279 125.88 168.466 126.096C169.654 126.312 170.912 124.866 171.276 122.866Z" fill="#FFB6B6"/>
<path d="M170.66 72.5353C170.66 72.5353 177.311 72.6268 177.305 76.1596C177.302 78.1541 176.874 96.2639 175.681 107.265C174.762 115.749 173.007 117.963 173.007 117.963L168.805 108.412L170.66 72.5353Z" fill="#E6E6E6"/>
<path d="M170.489 104.412H148.03C149.913 100.211 151.07 96.2106 149.261 93.0284L170.489 91.7977C169.429 96.0936 169.299 100.309 170.489 104.412Z" fill="#FFB6B6"/>
<path d="M167.721 67.1847L158.798 66.5694L155.106 71.1843L153.235 71.5246C150.429 72.0347 148.431 74.5385 148.557 77.3874L149.285 93.9347L170.611 95.4897L175.72 73.9417L169.567 71.492L167.721 67.1847Z" fill="#E6E6E6"/>
<path d="M113.309 72.1763C113.942 72.7458 114.394 73.411 114.633 74.0562L121.006 79.1002L118.517 82.0625L112.32 76.627C111.653 76.4576 110.944 76.0783 110.311 75.5089C108.865 74.2079 108.364 72.4073 109.192 71.487C110.02 70.5668 111.863 70.8754 113.309 72.1763Z" fill="#FFB6B6"/>
<path d="M158.366 76.4227L133.947 92.9115L116.443 80.7304L119.071 75.9702L132.848 83.9765L145.553 74.2213C150.077 69.9717 155.747 70.7955 158.366 76.4227Z" fill="#E6E6E6"/>
<path d="M162.73 65.1874C166.386 65.1874 169.35 62.2239 169.35 58.5682C169.35 54.9125 166.386 51.9489 162.73 51.9489C159.075 51.9489 156.111 54.9125 156.111 58.5682C156.111 62.2239 159.075 65.1874 162.73 65.1874Z" fill="#FFB6B6"/>
<path d="M171.728 56.942V58.2256L164.262 56.1244L158.665 57.2973C158.601 56.4453 158.348 55.6086 157.928 54.8675C158.221 56.0562 158.253 56.9759 157.943 57.4501L157.191 57.6067C157.069 57.2743 156.832 56.984 156.522 56.8082C156.492 56.7891 156.453 56.7739 156.419 56.7853C156.366 56.8044 156.362 56.8732 156.362 56.9267C156.369 57.2094 156.377 57.4921 156.389 57.7748L154.226 58.2256V56.942C152.152 52.2742 157.619 48.2351 162.979 48.1932C165.397 48.1743 167.582 49.1712 169.168 50.7528C170.75 52.3383 171.728 54.5236 171.728 56.942Z" fill="#2F2E41"/>
<path d="M175.927 71.9938L175.363 71.9472C175.403 71.7628 175.443 71.5808 175.48 71.3965C175.793 69.8493 175.105 67.8799 175.054 66.3934C174.789 67.9639 175.243 69.896 174.773 71.3871C174.721 71.5528 172.681 72.622 172.625 72.7853C170.368 71.9597 168.017 69.3217 165.354 70.8625C163.78 71.7738 161.983 71.3743 160.196 70.9571C159.753 70.8538 159.692 68.6687 159.254 68.5828C158.469 68.4291 157.318 70.4154 156.579 70.493L159.636 58.6497C159.636 52.2069 159.039 45.4473 167.2 47.7254C169.253 48.2984 171.284 48.7475 172.799 50.4416C174.314 52.1381 175.393 54.5089 175.775 57.2088C176.005 58.8376 177.444 64.3679 175.927 71.9938Z" fill="#2F2E41"/>
<path d="M170.657 191.091L167.013 191.177L164.982 174.808L170.359 174.681L170.657 191.091Z" fill="#FFB7B7"/>
<path d="M158.157 198.692C158.157 199.307 158.594 199.806 159.132 199.806H166.364C166.364 199.806 167.076 196.946 169.977 195.714L170.178 199.806H173.908L173.456 193.227C173.456 193.227 174.454 189.707 172.382 187.907C170.309 186.108 171.988 186.359 171.988 186.359L171.173 182.286L165.535 182.949L165.494 189.342L162.758 195.687L158.745 197.669C158.388 197.845 158.157 198.247 158.157 198.692Z" fill="#2F2E41"/>
<path d="M159.572 188.423L156.07 189.431L149.952 174.114L155.12 172.626L159.572 188.423Z" fill="#FFB7B7"/>
<path d="M149.41 198.948C149.567 199.543 150.116 199.915 150.637 199.778L157.632 197.943C157.632 197.943 157.594 194.995 160.089 193.068L161.321 196.975L164.929 196.029L162.822 189.779C162.822 189.779 162.894 186.121 160.433 184.906C157.972 183.692 159.659 183.508 159.659 183.508L157.837 179.776L152.552 181.848L154.134 188.042L153.098 194.873L149.72 197.809C149.419 198.07 149.298 198.518 149.41 198.948Z" fill="#2F2E41"/>
<path d="M168.423 103.445L170.715 104.209C174.299 110.828 175.818 119.618 175.617 130.218L171.545 177.825H164.884L160.009 124.789L151.413 144.695L157.702 177.825L151.413 178.466L138.745 144.017L147.567 103.978L168.423 103.445Z" fill="#2F2E41"/>
</g>
<defs>
<clipPath id="clip0_8192_613">
<rect width="208.429" height="200" fill="white" transform="translate(0.785645)"/>
</clipPath>
</defs>
</svg>
