<svg width="137" height="37" viewBox="0 0 137 37" fill="none" xmlns="http://www.w3.org/2000/svg">
<path d="M21.4292 35.3021C24.8966 35.3021 28.1188 34.2646 30.7988 32.4736C27.6138 35.1391 23.5074 36.743 19.0266 36.743C8.88247 36.743 0.655151 28.5157 0.655151 18.3715C0.655151 8.22731 8.88247 0 19.0266 0C23.5074 0 27.6138 1.60383 30.7988 4.26936C28.1188 2.47836 24.8966 1.44087 21.4292 1.44087C12.0772 1.44087 4.49854 9.01955 4.49854 18.3715C4.49854 27.7234 12.0772 35.3021 21.4292 35.3021Z" fill="white"/>
<path d="M19.882 33.1385C16.8583 33.1385 14.0459 32.2333 11.7095 30.6714C14.4864 32.9965 18.0684 34.3954 21.9763 34.3954C30.8232 34.3954 38.0002 27.2201 38.0002 18.3716C38.0002 9.52305 30.8249 2.34775 21.9763 2.34775C18.0684 2.34775 14.4864 3.74667 11.7095 6.07174C14.0475 4.50986 16.8583 3.60468 19.882 3.60468C28.0383 3.60468 34.6489 10.2152 34.6489 18.3716C34.6473 26.5279 28.0367 33.1385 19.882 33.1385Z" fill="white"/>
<path d="M17.0014 25.1243L16.9853 22.4539L19.53 21.1144L19.5187 16.6707L21.8906 18.8458L21.8954 25.8097L30.3002 21.4177C30.5826 21.2725 30.9149 21.266 31.2021 21.4L33.0674 22.3423L21.35 28.9302C20.5158 29.3982 19.5526 28.7995 19.5187 27.8443V23.7218L17.0014 25.1243Z" fill="#43AF7B"/>
<path d="M13.0375 10.8105C12.8068 11.1945 12.681 11.6382 12.6842 12.1029C12.6874 12.5725 12.8485 13.0356 13.0825 13.4163H8.80691C8.09373 13.4212 7.51287 12.8468 7.50803 12.1336C7.50319 11.4204 8.0675 10.8154 8.78068 10.8105H13.0375Z" fill="#43AF7B"/>
<path d="M22.6604 12.0933C22.6653 12.8064 22.1002 13.4115 21.387 13.4164H17.1277C17.3584 13.0323 17.4843 12.5935 17.481 12.1239C17.4778 11.6592 17.3617 11.1913 17.1277 10.8105H21.3632C22.0747 10.8073 22.6556 11.3817 22.6604 12.0933Z" fill="#43AF7B"/>
<path d="M16.3271 13.9835V24.548C16.3318 25.3177 15.766 25.9453 15.0635 25.9486C14.361 25.9534 13.7292 25.3177 13.7245 24.548V13.9835C14.1027 14.2143 14.5408 14.3401 15.0005 14.3369C15.4601 14.3337 15.9521 14.2175 16.3271 13.9835Z" fill="#43AF7B"/>
<path d="M15.0765 13.5148C15.9124 13.5148 16.59 12.8372 16.59 12.0013C16.59 11.1655 15.9124 10.4879 15.0765 10.4879C14.2407 10.4879 13.563 11.1655 13.563 12.0013C13.563 12.8372 14.2407 13.5148 15.0765 13.5148Z" fill="#43AF7B"/>
<path d="M44.6391 29.9135V24.0953H48.2869V24.851H45.517V26.6237H48.0965V27.3766H45.517V29.1578H48.321V29.9135H44.6391ZM54.7955 24.0953V29.9135H53.9887L51.0313 25.6464H50.9773V29.9135H50.0995V24.0953H50.912L53.8722 28.368H53.9262V24.0953H54.7955ZM56.716 29.9135V24.0953H57.5939V26.6237H60.4944V24.0953H61.3751V29.9135H60.4944V27.3766H57.5939V29.9135H56.716ZM63.785 29.9135H62.8532L64.9469 24.0953H65.9611L68.0549 29.9135H67.1231L65.4782 25.1521H65.4327L63.785 29.9135ZM63.9412 27.6351H66.964V28.3737H63.9412V27.6351ZM74.2311 24.0953V29.9135H73.4243L70.4669 25.6464H70.4129V29.9135H69.5351V24.0953H70.3476L73.3078 28.368H73.3618V24.0953H74.2311ZM80.984 25.9873H80.0977C80.0636 25.798 80.0001 25.6313 79.9073 25.4873C79.8145 25.3434 79.7009 25.2212 79.5664 25.1209C79.4319 25.0205 79.2814 24.9447 79.1147 24.8936C78.9499 24.8425 78.7748 24.8169 78.5891 24.8169C78.2539 24.8169 77.9537 24.9012 77.6886 25.0697C77.4253 25.2383 77.217 25.4855 77.0636 25.8112C76.9121 26.137 76.8363 26.5347 76.8363 27.0044C76.8363 27.4779 76.9121 27.8775 77.0636 28.2033C77.217 28.529 77.4263 28.7752 77.6914 28.9419C77.9566 29.1086 78.2549 29.1919 78.5863 29.1919C78.77 29.1919 78.9443 29.1673 79.109 29.118C79.2757 29.0669 79.4263 28.9921 79.5607 28.8936C79.6952 28.7951 79.8088 28.6748 79.9016 28.5328C79.9963 28.3889 80.0617 28.2241 80.0977 28.0385L80.984 28.0413C80.9367 28.3273 80.8448 28.5906 80.7085 28.8311C80.574 29.0697 80.4007 29.2762 80.1886 29.4504C79.9783 29.6228 79.7378 29.7563 79.467 29.851C79.1962 29.9457 78.9007 29.993 78.5806 29.993C78.0768 29.993 77.628 29.8737 77.234 29.6351C76.8401 29.3945 76.5295 29.0508 76.3022 28.6038C76.0768 28.1569 75.9641 27.6237 75.9641 27.0044C75.9641 26.3832 76.0778 25.85 76.3051 25.405C76.5323 24.958 76.8429 24.6152 77.2369 24.3766C77.6308 24.136 78.0787 24.0158 78.5806 24.0158C78.8893 24.0158 79.1772 24.0603 79.4443 24.1493C79.7132 24.2364 79.9547 24.3652 80.1687 24.5356C80.3827 24.7042 80.5598 24.9106 80.6999 25.155C80.8401 25.3974 80.9348 25.6748 80.984 25.9873ZM82.6745 29.9135V24.0953H86.3222V24.851H83.5523V26.6237H86.1318V27.3766H83.5523V29.1578H86.3563V29.9135H82.6745ZM90.4431 24.0953H91.4403L92.9601 26.7402H93.0226L94.5425 24.0953H95.5397L93.4289 27.6294V29.9135H92.5539V27.6294L90.4431 24.0953ZM101.766 27.0044C101.766 27.6256 101.652 28.1597 101.425 28.6067C101.197 29.0517 100.886 29.3945 100.49 29.6351C100.096 29.8737 99.6482 29.993 99.1463 29.993C98.6425 29.993 98.1927 29.8737 97.7969 29.6351C97.4029 29.3945 97.0923 29.0508 96.8651 28.6038C96.6378 28.1569 96.5241 27.6237 96.5241 27.0044C96.5241 26.3832 96.6378 25.85 96.8651 25.405C97.0923 24.958 97.4029 24.6152 97.7969 24.3766C98.1927 24.136 98.6425 24.0158 99.1463 24.0158C99.6482 24.0158 100.096 24.136 100.49 24.3766C100.886 24.6152 101.197 24.958 101.425 25.405C101.652 25.85 101.766 26.3832 101.766 27.0044ZM100.896 27.0044C100.896 26.5309 100.82 26.1322 100.666 25.8084C100.515 25.4826 100.306 25.2364 100.041 25.0697C99.7779 24.9012 99.4796 24.8169 99.1463 24.8169C98.8111 24.8169 98.5118 24.9012 98.2486 25.0697C97.9853 25.2364 97.777 25.4826 97.6236 25.8084C97.4721 26.1322 97.3963 26.5309 97.3963 27.0044C97.3963 27.4779 97.4721 27.8775 97.6236 28.2033C97.777 28.5271 97.9853 28.7733 98.2486 28.9419C98.5118 29.1086 98.8111 29.1919 99.1463 29.1919C99.4796 29.1919 99.7779 29.1086 100.041 28.9419C100.306 28.7733 100.515 28.5271 100.666 28.2033C100.82 27.8775 100.896 27.4779 100.896 27.0044ZM107.242 24.0953H108.122V27.922C108.122 28.3292 108.027 28.69 107.835 29.0044C107.644 29.3169 107.375 29.5631 107.028 29.743C106.682 29.9211 106.276 30.0101 105.81 30.0101C105.346 30.0101 104.94 29.9211 104.594 29.743C104.247 29.5631 103.978 29.3169 103.787 29.0044C103.596 28.69 103.5 28.3292 103.5 27.922V24.0953H104.378V27.851C104.378 28.1142 104.436 28.3481 104.551 28.5527C104.669 28.7572 104.834 28.9182 105.048 29.0356C105.262 29.1512 105.516 29.2089 105.81 29.2089C106.105 29.2089 106.36 29.1512 106.574 29.0356C106.79 28.9182 106.955 28.7572 107.068 28.5527C107.184 28.3481 107.242 28.1142 107.242 27.851V24.0953ZM110.039 29.9135V24.0953H112.112C112.563 24.0953 112.937 24.173 113.235 24.3283C113.534 24.4836 113.757 24.6985 113.905 24.9731C114.053 25.2459 114.127 25.5612 114.127 25.9192C114.127 26.2752 114.052 26.5887 113.902 26.8595C113.754 27.1284 113.531 27.3377 113.232 27.4873C112.934 27.637 112.56 27.7118 112.11 27.7118H110.539V26.9561H112.03C112.314 26.9561 112.545 26.9154 112.723 26.8339C112.903 26.7525 113.035 26.6341 113.118 26.4788C113.201 26.3235 113.243 26.137 113.243 25.9192C113.243 25.6995 113.2 25.5091 113.115 25.3481C113.032 25.1872 112.9 25.0641 112.72 24.9788C112.542 24.8917 112.308 24.8481 112.019 24.8481H110.916V29.9135H110.039ZM112.911 27.2885L114.348 29.9135H113.348L111.939 27.2885H112.911ZM119.008 25.6237C118.978 25.3548 118.853 25.1464 118.633 24.9987C118.413 24.8491 118.137 24.7743 117.804 24.7743C117.565 24.7743 117.358 24.8122 117.184 24.8879C117.01 24.9618 116.875 25.0641 116.778 25.1947C116.683 25.3235 116.636 25.4703 116.636 25.6351C116.636 25.7733 116.668 25.8926 116.732 25.993C116.799 26.0934 116.885 26.1777 116.991 26.2459C117.099 26.3122 117.215 26.368 117.338 26.4135C117.461 26.457 117.579 26.493 117.693 26.5214L118.261 26.6692C118.447 26.7146 118.637 26.7762 118.832 26.8538C119.027 26.9315 119.208 27.0337 119.375 27.1606C119.541 27.2875 119.676 27.4447 119.778 27.6322C119.882 27.8197 119.934 28.0442 119.934 28.3055C119.934 28.6351 119.849 28.9277 119.679 29.1834C119.51 29.4391 119.265 29.6408 118.943 29.7885C118.623 29.9362 118.235 30.0101 117.781 30.0101C117.345 30.0101 116.968 29.9409 116.65 29.8027C116.332 29.6644 116.083 29.4684 115.903 29.2146C115.723 28.9589 115.624 28.6559 115.605 28.3055H116.485C116.502 28.5158 116.571 28.6909 116.69 28.8311C116.811 28.9694 116.965 29.0726 117.153 29.1408C117.342 29.207 117.55 29.2402 117.775 29.2402C118.023 29.2402 118.244 29.2014 118.437 29.1237C118.632 29.0442 118.786 28.9343 118.897 28.7942C119.009 28.6521 119.065 28.4864 119.065 28.297C119.065 28.1247 119.016 27.9836 118.917 27.8737C118.821 27.7639 118.689 27.673 118.522 27.601C118.357 27.529 118.171 27.4656 117.963 27.4106L117.275 27.2231C116.809 27.0962 116.44 26.9097 116.167 26.6635C115.896 26.4173 115.761 26.0915 115.761 25.6862C115.761 25.351 115.852 25.0584 116.034 24.8084C116.215 24.5584 116.462 24.3642 116.772 24.226C117.083 24.0858 117.433 24.0158 117.823 24.0158C118.217 24.0158 118.565 24.0849 118.866 24.2231C119.169 24.3614 119.408 24.5517 119.582 24.7942C119.756 25.0347 119.847 25.3112 119.855 25.6237H119.008ZM121.623 29.9135V24.0953H125.271V24.851H122.501V26.6237H125.081V27.3766H122.501V29.1578H125.305V29.9135H121.623ZM127.084 29.9135V24.0953H127.961V29.1578H130.598V29.9135H127.084ZM132.239 29.9135V24.0953H135.847V24.851H133.117V26.6237H135.589V27.3766H133.117V29.9135H132.239Z" fill="white"/>
<path d="M47.3783 16.8534H45V6.14819H47.3783V16.8534ZM59.6666 7.9342H56.1311V16.8534H53.7528V7.9342H50.2645V6.14819H59.6682V7.9342H59.6666ZM71.7715 13.7649L73.3256 6.14663H75.6955L73.1356 16.8518H70.7405L68.8618 9.69058L66.983 16.8518H64.5879L62.0263 6.14663H64.3979L65.9604 13.7493L67.8627 6.14663H69.876L71.7715 13.7649ZM81.1416 16.8534H78.7634V6.14819H81.1416V16.8534ZM94.3651 16.8534H91.9868L87.3564 9.80913V16.8534H84.9782V6.14819H87.3564L91.9952 13.2065V6.14819H94.3651V16.8534ZM98.0654 16.8534V6.14819H101.618C102.632 6.14819 103.538 6.36189 104.337 6.78772C105.141 7.20888 105.767 7.81253 106.216 8.59713C106.665 9.37705 106.891 10.263 106.891 11.2582V11.7511C106.891 12.7463 106.669 13.6307 106.225 14.406C105.786 15.1812 105.165 15.7802 104.361 16.2076C103.557 16.6334 102.65 16.8503 101.641 16.8549H98.0654V16.8534ZM100.444 7.9342V15.0814H101.594C102.524 15.0814 103.236 14.7991 103.727 14.236C104.218 13.6729 104.47 12.8664 104.48 11.8166V11.2504C104.48 10.1617 104.236 9.33806 103.75 8.77964C103.264 8.21653 102.553 7.9342 101.618 7.9342H100.444ZM119.732 11.7433C119.732 12.7978 119.532 13.7212 119.13 14.5152C118.728 15.3091 118.153 15.9221 117.403 16.3527C116.658 16.7847 115.801 17 114.834 17C113.877 17 113.025 16.7863 112.273 16.3605C111.523 15.9346 110.941 15.3263 110.529 14.537C110.117 13.7431 109.908 12.8305 109.903 11.801V11.2723C109.903 10.2178 110.106 9.29127 110.513 8.49263C110.926 7.68931 111.504 7.07317 112.249 6.64733C112.999 6.21526 113.857 6 114.818 6C115.78 6 116.634 6.21526 117.379 6.64733C118.129 7.07317 118.708 7.68931 119.115 8.49263C119.527 9.29127 119.734 10.2162 119.734 11.2645V11.7433H119.732ZM117.322 11.2582C117.322 10.1351 117.105 9.28346 116.673 8.70008C116.239 8.1167 115.622 7.82502 114.818 7.82502C114.02 7.82502 113.403 8.11359 112.971 8.69229C112.537 9.26631 112.318 10.1086 112.313 11.2223V11.7449C112.313 12.8383 112.53 13.6853 112.962 14.289C113.396 14.8927 114.019 15.1937 114.834 15.1937C115.632 15.1937 116.246 14.9051 116.674 14.3264C117.102 13.7431 117.319 12.8945 117.324 11.7823V11.2582H117.322ZM132.076 13.7649L133.63 6.14663H136L133.438 16.8518H131.045L129.166 9.69058L127.288 16.8518H124.894L122.332 6.14663H124.702L126.265 13.7493L128.167 6.14663H130.18L132.076 13.7649Z" fill="white"/>
</svg>
