<svg width="137" height="37" viewBox="0 0 137 37" fill="none" xmlns="http://www.w3.org/2000/svg">
<path d="M20.774 35.3021C24.2415 35.3021 27.4636 34.2646 30.1437 32.4736C26.9586 35.1391 22.8522 36.743 18.3715 36.743C8.22731 36.743 0 28.5157 0 18.3715C0 8.22731 8.22731 0 18.3715 0C22.8522 0 26.9586 1.60383 30.1437 4.26936C27.4636 2.47836 24.2415 1.44087 20.774 1.44087C11.4221 1.44087 3.84339 9.01955 3.84339 18.3715C3.84339 27.7234 11.4221 35.3021 20.774 35.3021Z" fill="#43AF7B"/>
<path d="M19.2268 33.1384C16.2031 33.1384 13.3908 32.2333 11.0544 30.6714C13.8312 32.9964 17.4132 34.3954 21.3212 34.3954C30.1681 34.3954 37.345 27.2201 37.345 18.3715C37.345 9.52302 30.1697 2.34772 21.3212 2.34772C17.4132 2.34772 13.8312 3.74664 11.0544 6.07171C13.3924 4.50983 16.2031 3.60465 19.2268 3.60465C27.3832 3.60465 33.9937 10.2152 33.9937 18.3715C33.9921 26.5279 27.3815 33.1384 19.2268 33.1384Z" fill="#43AF7B"/>
<path d="M16.3463 25.1243L16.3301 22.4539L18.8748 21.1143L18.8635 16.6707L21.2354 18.8457L21.2402 25.8097L29.645 21.4177C29.9274 21.2725 30.2598 21.266 30.547 21.3999L32.4122 22.3422L20.6949 28.9302C19.8607 29.3981 18.8974 28.7995 18.8635 27.8443V23.7218L16.3463 25.1243Z" fill="#43AF7B"/>
<path d="M12.3824 10.8105C12.1517 11.1945 12.0258 11.6382 12.029 12.1029C12.0323 12.5724 12.1934 13.0355 12.4274 13.4163H8.15175C7.43858 13.4212 6.85772 12.8467 6.85287 12.1336C6.84803 11.4204 7.41235 10.8153 8.12553 10.8105H12.3824Z" fill="#43AF7B"/>
<path d="M22.0053 12.0932C22.0101 12.8064 21.4451 13.4115 20.7319 13.4163H16.4725C16.7033 13.0323 16.8291 12.5934 16.8259 12.1239C16.8227 11.6592 16.7065 11.1913 16.4725 10.8105H20.708C21.4196 10.8073 22.0004 11.3817 22.0053 12.0932Z" fill="#43AF7B"/>
<path d="M15.672 13.9835V24.548C15.6766 25.3177 15.1109 25.9453 14.4084 25.9486C13.7058 25.9534 13.074 25.3177 13.0694 24.548V13.9835C13.4476 14.2143 13.8857 14.3401 14.3453 14.3369C14.805 14.3337 15.2969 14.2175 15.672 13.9835Z" fill="#0E1628"/>
<path d="M14.4214 13.5148C15.2572 13.5148 15.9349 12.8372 15.9349 12.0013C15.9349 11.1655 15.2572 10.4879 14.4214 10.4879C13.5855 10.4879 12.9079 11.1655 12.9079 12.0013C12.9079 12.8372 13.5855 13.5148 14.4214 13.5148Z" fill="#0E1628"/>
<path d="M43.984 29.9135V24.0953H47.6317V24.851H44.8618V26.6237H47.4414V27.3765H44.8618V29.1578H47.6658V29.9135H43.984ZM54.1403 24.0953V29.9135H53.3335L50.3761 25.6464H50.3221V29.9135H49.4443V24.0953H50.2568L53.217 28.368H53.271V24.0953H54.1403ZM56.0609 29.9135V24.0953H56.9387V26.6237H59.8393V24.0953H60.72V29.9135H59.8393V27.3765H56.9387V29.9135H56.0609ZM63.1298 29.9135H62.198L64.2918 24.0953H65.306L67.3997 29.9135H66.4679L64.823 25.1521H64.7776L63.1298 29.9135ZM63.2861 27.635H66.3088V28.3737H63.2861V27.635ZM73.576 24.0953V29.9135H72.7691L69.8117 25.6464H69.7578V29.9135H68.8799V24.0953H69.6924L72.6527 28.368H72.7066V24.0953H73.576ZM80.3289 25.9873H79.4425C79.4084 25.7979 79.345 25.6313 79.2522 25.4873C79.1594 25.3434 79.0457 25.2212 78.9113 25.1208C78.7768 25.0205 78.6262 24.9447 78.4596 24.8936C78.2948 24.8424 78.1196 24.8169 77.934 24.8169C77.5988 24.8169 77.2986 24.9011 77.0334 25.0697C76.7702 25.2383 76.5618 25.4854 76.4084 25.8112C76.2569 26.1369 76.1812 26.5347 76.1812 27.0044C76.1812 27.4778 76.2569 27.8775 76.4084 28.2032C76.5618 28.529 76.7711 28.7752 77.0363 28.9419C77.3014 29.1085 77.5997 29.1919 77.9312 29.1919C78.1149 29.1919 78.2891 29.1672 78.4539 29.118C78.6205 29.0669 78.7711 28.9921 78.9056 28.8936C79.0401 28.7951 79.1537 28.6748 79.2465 28.5328C79.3412 28.3888 79.4065 28.2241 79.4425 28.0385L80.3289 28.0413C80.2815 28.3273 80.1897 28.5905 80.0533 28.8311C79.9188 29.0697 79.7455 29.2761 79.5334 29.4504C79.3232 29.6227 79.0827 29.7563 78.8118 29.851C78.541 29.9456 78.2455 29.993 77.9255 29.993C77.4217 29.993 76.9728 29.8737 76.5789 29.635C76.1849 29.3945 75.8743 29.0508 75.6471 28.6038C75.4217 28.1568 75.309 27.6237 75.309 27.0044C75.309 26.3831 75.4226 25.85 75.6499 25.4049C75.8772 24.958 76.1878 24.6152 76.5817 24.3765C76.9757 24.136 77.4236 24.0157 77.9255 24.0157C78.2342 24.0157 78.5221 24.0602 78.7891 24.1492C79.058 24.2364 79.2995 24.3652 79.5135 24.5356C79.7276 24.7042 79.9046 24.9106 80.0448 25.1549C80.1849 25.3974 80.2796 25.6748 80.3289 25.9873ZM82.0193 29.9135V24.0953H85.667V24.851H82.8971V26.6237H85.4767V27.3765H82.8971V29.1578H85.7011V29.9135H82.0193ZM89.7879 24.0953H90.7851L92.305 26.7402H92.3675L93.8874 24.0953H94.8845L92.7737 27.6294V29.9135H91.8987V27.6294L89.7879 24.0953ZM101.11 27.0044C101.11 27.6256 100.997 28.1597 100.77 28.6066C100.542 29.0517 100.231 29.3945 99.8349 29.635C99.441 29.8737 98.993 29.993 98.4911 29.993C97.9874 29.993 97.5376 29.8737 97.1417 29.635C96.7478 29.3945 96.4372 29.0508 96.2099 28.6038C95.9826 28.1568 95.869 27.6237 95.869 27.0044C95.869 26.3831 95.9826 25.85 96.2099 25.4049C96.4372 24.958 96.7478 24.6152 97.1417 24.3765C97.5376 24.136 97.9874 24.0157 98.4911 24.0157C98.993 24.0157 99.441 24.136 99.8349 24.3765C100.231 24.6152 100.542 24.958 100.77 25.4049C100.997 25.85 101.11 26.3831 101.11 27.0044ZM100.241 27.0044C100.241 26.5309 100.164 26.1322 100.011 25.8083C99.8595 25.4826 99.6512 25.2364 99.386 25.0697C99.1228 24.9011 98.8245 24.8169 98.4911 24.8169C98.1559 24.8169 97.8567 24.9011 97.5934 25.0697C97.3302 25.2364 97.1218 25.4826 96.9684 25.8083C96.8169 26.1322 96.7411 26.5309 96.7411 27.0044C96.7411 27.4778 96.8169 27.8775 96.9684 28.2032C97.1218 28.5271 97.3302 28.7733 97.5934 28.9419C97.8567 29.1085 98.1559 29.1919 98.4911 29.1919C98.8245 29.1919 99.1228 29.1085 99.386 28.9419C99.6512 28.7733 99.8595 28.5271 100.011 28.2032C100.164 27.8775 100.241 27.4778 100.241 27.0044ZM106.586 24.0953H107.467V27.922C107.467 28.3292 107.371 28.69 107.18 29.0044C106.989 29.3169 106.72 29.5631 106.373 29.743C106.027 29.921 105.62 30.01 105.155 30.01C104.691 30.01 104.285 29.921 103.939 29.743C103.592 29.5631 103.323 29.3169 103.132 29.0044C102.941 28.69 102.845 28.3292 102.845 27.922V24.0953H103.723V27.851C103.723 28.1142 103.781 28.3481 103.896 28.5527C104.013 28.7572 104.179 28.9182 104.393 29.0356C104.607 29.1511 104.861 29.2089 105.155 29.2089C105.45 29.2089 105.705 29.1511 105.919 29.0356C106.135 28.9182 106.299 28.7572 106.413 28.5527C106.529 28.3481 106.586 28.1142 106.586 27.851V24.0953ZM109.383 29.9135V24.0953H111.457C111.908 24.0953 112.282 24.1729 112.579 24.3282C112.879 24.4835 113.102 24.6985 113.25 24.9731C113.398 25.2458 113.471 25.5612 113.471 25.9191C113.471 26.2752 113.397 26.5886 113.247 26.8595C113.099 27.1284 112.876 27.3377 112.577 27.4873C112.279 27.6369 111.905 27.7117 111.454 27.7117H109.883V26.9561H111.375C111.659 26.9561 111.89 26.9153 112.068 26.8339C112.248 26.7525 112.38 26.6341 112.463 26.4788C112.546 26.3235 112.588 26.1369 112.588 25.9191C112.588 25.6994 112.545 25.5091 112.46 25.3481C112.377 25.1871 112.245 25.064 112.065 24.9788C111.887 24.8917 111.653 24.8481 111.363 24.8481H110.261V29.9135H109.383ZM112.256 27.2885L113.693 29.9135H112.693L111.284 27.2885H112.256ZM118.353 25.6237C118.323 25.3547 118.198 25.1464 117.978 24.9987C117.758 24.8491 117.482 24.7742 117.148 24.7742C116.91 24.7742 116.703 24.8121 116.529 24.8879C116.355 24.9617 116.219 25.064 116.123 25.1947C116.028 25.3235 115.981 25.4703 115.981 25.635C115.981 25.7733 116.013 25.8926 116.077 25.993C116.144 26.0934 116.23 26.1777 116.336 26.2458C116.444 26.3121 116.559 26.368 116.682 26.4135C116.806 26.457 116.924 26.493 117.038 26.5214L117.606 26.6691C117.791 26.7146 117.982 26.7761 118.177 26.8538C118.372 26.9314 118.553 27.0337 118.719 27.1606C118.886 27.2875 119.021 27.4447 119.123 27.6322C119.227 27.8197 119.279 28.0441 119.279 28.3055C119.279 28.635 119.194 28.9277 119.023 29.1833C118.855 29.439 118.61 29.6407 118.288 29.7885C117.967 29.9362 117.58 30.01 117.126 30.01C116.69 30.01 116.313 29.9409 115.995 29.8027C115.677 29.6644 115.428 29.4684 115.248 29.2146C115.068 28.9589 114.968 28.6559 114.95 28.3055H115.83C115.847 28.5157 115.915 28.6909 116.035 28.8311C116.156 28.9693 116.31 29.0725 116.498 29.1407C116.687 29.207 116.895 29.2402 117.12 29.2402C117.368 29.2402 117.589 29.2013 117.782 29.1237C117.977 29.0441 118.13 28.9343 118.242 28.7941C118.354 28.6521 118.41 28.4864 118.41 28.297C118.41 28.1246 118.36 27.9835 118.262 27.8737C118.165 27.7638 118.034 27.6729 117.867 27.601C117.702 27.529 117.516 27.4655 117.307 27.4106L116.62 27.2231C116.154 27.0962 115.785 26.9097 115.512 26.6635C115.241 26.4172 115.106 26.0915 115.106 25.6862C115.106 25.351 115.197 25.0583 115.378 24.8083C115.56 24.5583 115.807 24.3642 116.117 24.226C116.428 24.0858 116.778 24.0157 117.168 24.0157C117.562 24.0157 117.91 24.0849 118.211 24.2231C118.514 24.3614 118.753 24.5517 118.927 24.7941C119.101 25.0347 119.192 25.3112 119.2 25.6237H118.353ZM120.968 29.9135V24.0953H124.616V24.851H121.846V26.6237H124.425V27.3765H121.846V29.1578H124.65V29.9135H120.968ZM126.428 29.9135V24.0953H127.306V29.1578H129.943V29.9135H126.428ZM131.584 29.9135V24.0953H135.192V24.851H132.462V26.6237H134.933V27.3765H132.462V29.9135H131.584Z" fill="#333333"/>
<path d="M46.7231 16.8534H44.3448V6.14819H46.7231V16.8534ZM59.0114 7.9342H55.476V16.8534H53.0977V7.9342H49.6093V6.14819H59.0131V7.9342H59.0114ZM71.1164 13.7649L72.6705 6.14663H75.0404L72.4804 16.8518H70.0853L68.2066 9.69058L66.3279 16.8518H63.9328L61.3712 6.14663H63.7427L65.3053 13.7493L67.2075 6.14663H69.2208L71.1164 13.7649ZM80.4865 16.8534H78.1082V6.14819H80.4865V16.8534ZM93.71 16.8534H91.3317L86.7013 9.80913V16.8534H84.323V6.14819H86.7013L91.3401 13.2065V6.14819H93.71V16.8534ZM97.4102 16.8534V6.14819H100.963C101.977 6.14819 102.883 6.36189 103.682 6.78772C104.486 7.20888 105.112 7.81253 105.561 8.59713C106.01 9.37705 106.235 10.263 106.235 11.2582V11.7511C106.235 12.7463 106.013 13.6307 105.569 14.406C105.13 15.1812 104.51 15.7802 103.706 16.2076C102.902 16.6334 101.995 16.8503 100.986 16.8549H97.4102V16.8534ZM99.7885 7.9342V15.0814H100.939C101.869 15.0814 102.581 14.7991 103.072 14.236C103.563 13.6729 103.815 12.8664 103.825 11.8166V11.2504C103.825 10.1617 103.581 9.33806 103.095 8.77964C102.609 8.21653 101.898 7.9342 100.963 7.9342H99.7885ZM119.077 11.7433C119.077 12.7978 118.877 13.7212 118.475 14.5152C118.073 15.3091 117.498 15.9221 116.748 16.3527C116.002 16.7847 115.146 17 114.179 17C113.222 17 112.369 16.7863 111.618 16.3605C110.867 15.9346 110.286 15.3263 109.873 14.537C109.461 13.7431 109.253 12.8305 109.248 11.801V11.2723C109.248 10.2178 109.451 9.29127 109.858 8.49263C110.27 7.68931 110.849 7.07317 111.594 6.64733C112.344 6.21526 113.202 6 114.162 6C115.124 6 115.979 6.21526 116.724 6.64733C117.474 7.07317 118.053 7.68931 118.46 8.49263C118.872 9.29127 119.079 10.2162 119.079 11.2645V11.7433H119.077ZM116.667 11.2582C116.667 10.1351 116.45 9.28346 116.018 8.70008C115.584 8.1167 114.966 7.82502 114.162 7.82502C113.365 7.82502 112.748 8.11359 112.316 8.69229C111.882 9.26631 111.663 10.1086 111.658 11.2223V11.7449C111.658 12.8383 111.875 13.6853 112.307 14.289C112.741 14.8927 113.363 15.1937 114.179 15.1937C114.976 15.1937 115.59 14.9051 116.019 14.3264C116.446 13.7431 116.663 12.8945 116.669 11.7823V11.2582H116.667ZM131.421 13.7649L132.975 6.14663H135.345L132.783 16.8518H130.39L128.511 9.69058L126.632 16.8518H124.239L121.677 6.14663H124.047L125.61 13.7493L127.512 6.14663H129.525L131.421 13.7649Z" fill="#0E1628"/>
</svg>
