<svg width="278" height="200" viewBox="0 0 278 200" fill="none" xmlns="http://www.w3.org/2000/svg">
<g clip-path="url(#clip0_8192_471)">
<path d="M277.034 198.466H0.966017C0.859904 198.466 0.758137 198.424 0.683104 198.349C0.608071 198.274 0.565918 198.172 0.565918 198.066C0.565918 197.96 0.608071 197.858 0.683104 197.783C0.758137 197.708 0.859904 197.666 0.966017 197.666H277.034C277.14 197.666 277.242 197.708 277.317 197.783C277.392 197.858 277.434 197.96 277.434 198.066C277.434 198.172 277.392 198.274 277.317 198.349C277.242 198.424 277.14 198.466 277.034 198.466Z" fill="#CCCCCC"/>
<path d="M249.709 128.688H87.2691C86.5794 128.688 85.9179 128.962 85.4302 129.45C84.9425 129.938 84.6685 130.599 84.6685 131.289C84.6685 131.979 84.9425 132.64 85.4302 133.128C85.9179 133.616 86.5794 133.89 87.2691 133.89H91.8702V196.105C91.8702 196.795 92.1442 197.456 92.6319 197.944C93.1197 198.432 93.7811 198.706 94.4709 198.706C95.1606 198.706 95.8221 198.432 96.3098 197.944C96.7975 197.456 97.0715 196.795 97.0715 196.105L97.111 133.89H239.507V196.105C239.507 196.795 239.781 197.456 240.268 197.944C240.756 198.432 241.418 198.706 242.107 198.706C242.797 198.706 243.458 198.432 243.946 197.944C244.434 197.456 244.708 196.795 244.708 196.105V135.261L245.465 133.89H249.709C250.399 133.89 251.06 133.616 251.548 133.128C252.036 132.64 252.31 131.979 252.31 131.289C252.31 130.599 252.036 129.938 251.548 129.45C251.06 128.962 250.399 128.688 249.709 128.688Z" fill="#CCCCCC"/>
<path d="M177.327 130.049H128.122C127.169 130.048 126.256 129.669 125.582 128.996C124.909 128.322 124.53 127.408 124.529 126.456V99.3654C124.53 98.4126 124.909 97.4992 125.582 96.8255C126.256 96.1518 127.169 95.7728 128.122 95.7718H177.327C178.28 95.7728 179.193 96.1518 179.867 96.8255C180.541 97.4992 180.92 98.4126 180.921 99.3654V126.456C180.92 127.408 180.541 128.322 179.867 128.996C179.193 129.669 178.28 130.048 177.327 130.049Z" fill="#3F3D56"/>
<path d="M177.327 98.5375H128.123C127.903 98.538 127.693 98.6254 127.537 98.7806C127.382 98.9358 127.295 99.1462 127.294 99.3657V126.456C127.295 126.676 127.382 126.886 127.537 127.042C127.693 127.197 127.903 127.284 128.123 127.285H177.327C177.546 127.284 177.757 127.197 177.912 127.042C178.067 126.886 178.155 126.676 178.155 126.456V99.3657C178.155 99.1462 178.067 98.9358 177.912 98.7806C177.757 98.6254 177.546 98.538 177.327 98.5375Z" fill="white"/>
<path d="M156.921 117.718C156.921 117.718 151.031 116.36 147.791 118.849C144.551 121.337 151.914 126.993 151.914 126.993L156.921 117.718Z" fill="#2F2E41"/>
<path d="M153.013 115.153C156.082 115.153 158.569 112.665 158.569 109.597C158.569 106.528 156.082 104.041 153.013 104.041C149.945 104.041 147.457 106.528 147.457 109.597C147.457 112.665 149.945 115.153 153.013 115.153Z" fill="#A0616A"/>
<path d="M148.717 101.797C149.087 101.168 149.624 100.654 150.269 100.311C150.913 99.9683 151.64 99.8102 152.368 99.8544C153.13 99.9499 153.874 100.158 154.575 100.472L158.207 101.889C159.147 102.256 160.176 102.705 160.584 103.627C160.963 104.484 160.68 105.473 160.394 106.365L159.036 110.603C158.885 109.644 158.627 108.704 158.265 107.803C157.898 106.896 157.235 106.139 156.383 105.657C155.44 105.173 154.328 105.183 153.269 105.234C151.769 105.306 150.138 105.497 149.072 106.555C148.506 107.156 148.123 107.905 147.966 108.715C147.811 109.521 147.734 110.34 147.734 111.161C147.119 110.103 146.601 108.992 146.186 107.842C145.844 106.985 145.65 106.077 145.61 105.155C145.575 104.226 145.883 103.316 146.476 102.6C146.778 102.25 147.171 101.991 147.611 101.852C148.052 101.714 148.522 101.701 148.969 101.815L148.717 101.797Z" fill="#2F2E41"/>
<path d="M166.28 122.535C166.228 122.348 166.121 122.18 165.974 122.052C165.827 121.925 165.645 121.844 165.452 121.819C165.439 121.81 165.426 121.802 165.412 121.795L157.117 117.147C156.88 117.014 156.601 116.978 156.338 117.045C156.075 117.113 155.849 117.28 155.705 117.51L153.437 121.183L150.02 117.766L149.966 117.712C149.79 117.537 149.559 117.429 149.312 117.407C149.065 117.385 148.818 117.452 148.615 117.594L141.798 122.367C141.786 122.367 141.774 122.371 141.762 122.371C141.436 122.426 141.138 122.59 140.917 122.836C140.697 123.083 140.567 123.397 140.55 123.728L140.374 127.285H167.596L166.28 122.535Z" fill="#43AF7B"/>
<path d="M181.474 126.732H176.221C176.221 126.586 176.163 126.445 176.06 126.341C175.956 126.238 175.815 126.179 175.669 126.179H174.01C173.863 126.179 173.723 126.238 173.619 126.341C173.515 126.445 173.457 126.586 173.457 126.732H171.799C171.799 126.586 171.74 126.445 171.637 126.341C171.533 126.238 171.392 126.179 171.246 126.179H169.587C169.44 126.179 169.3 126.238 169.196 126.341C169.092 126.445 169.034 126.586 169.034 126.732H167.376C167.376 126.586 167.317 126.445 167.214 126.341C167.11 126.238 166.969 126.179 166.823 126.179H165.164C165.018 126.179 164.877 126.238 164.773 126.341C164.67 126.445 164.611 126.586 164.611 126.732H162.953C162.953 126.586 162.894 126.445 162.791 126.341C162.687 126.238 162.546 126.179 162.4 126.179H160.741C160.595 126.179 160.454 126.238 160.35 126.341C160.247 126.445 160.188 126.586 160.188 126.732H158.53C158.53 126.586 158.472 126.445 158.368 126.341C158.264 126.238 158.124 126.179 157.977 126.179H156.318C156.172 126.179 156.031 126.238 155.927 126.341C155.824 126.445 155.766 126.586 155.766 126.732H154.107C154.107 126.586 154.049 126.445 153.945 126.341C153.841 126.238 153.701 126.179 153.554 126.179H151.895C151.749 126.179 151.608 126.238 151.505 126.341C151.401 126.445 151.343 126.586 151.343 126.732H149.684C149.684 126.586 149.626 126.445 149.522 126.341C149.418 126.238 149.278 126.179 149.131 126.179H147.473C147.326 126.179 147.185 126.238 147.082 126.341C146.978 126.445 146.92 126.586 146.92 126.732H145.261C145.261 126.586 145.203 126.445 145.099 126.341C144.995 126.238 144.855 126.179 144.708 126.179H143.05C142.903 126.179 142.762 126.238 142.659 126.341C142.555 126.445 142.497 126.586 142.497 126.732H140.838C140.838 126.586 140.78 126.445 140.676 126.341C140.573 126.238 140.432 126.179 140.285 126.179H138.627C138.48 126.179 138.339 126.238 138.236 126.341C138.132 126.445 138.074 126.586 138.074 126.732H136.415C136.415 126.586 136.357 126.445 136.253 126.341C136.15 126.238 136.009 126.179 135.862 126.179H134.204C134.057 126.179 133.917 126.238 133.813 126.341C133.709 126.445 133.651 126.586 133.651 126.732H131.992C131.992 126.586 131.934 126.445 131.83 126.341C131.727 126.238 131.586 126.179 131.44 126.179H129.781C129.634 126.179 129.494 126.238 129.39 126.341C129.286 126.445 129.228 126.586 129.228 126.732H123.976C123.536 126.733 123.115 126.908 122.805 127.219C122.494 127.53 122.32 127.951 122.32 128.391C122.32 128.83 122.494 129.252 122.805 129.563C123.115 129.874 123.536 130.049 123.976 130.049H181.474C181.914 130.049 182.335 129.875 182.646 129.564C182.958 129.252 183.132 128.831 183.132 128.391C183.132 127.951 182.958 127.529 182.646 127.218C182.335 126.907 181.914 126.732 181.474 126.732Z" fill="#3F3D56"/>
<path d="M115.426 117.1V128.113H87.8343C87.095 128.139 86.3582 128.016 85.6676 127.75C84.9771 127.485 84.347 127.084 83.815 126.57C83.2829 126.056 82.8597 125.44 82.5708 124.759C82.2818 124.079 82.1328 123.346 82.1328 122.607C82.1328 121.867 82.2818 121.135 82.5708 120.454C82.8597 119.773 83.2829 119.157 83.815 118.643C84.347 118.13 84.9771 117.728 85.6676 117.463C86.3582 117.198 87.095 117.074 87.8343 117.1H115.426Z" fill="#F2F2F2"/>
<path d="M116.104 128.028C116.104 128.141 116.059 128.249 115.98 128.328C115.9 128.407 115.792 128.452 115.68 128.452H87.3428C85.8037 128.452 84.3277 127.841 83.2395 126.752C82.1512 125.664 81.5398 124.188 81.5398 122.649C81.5398 121.11 82.1512 119.634 83.2395 118.546C84.3277 117.457 85.8037 116.846 87.3428 116.846H115.68C115.792 116.846 115.9 116.891 115.98 116.97C116.059 117.05 116.104 117.157 116.104 117.27C116.104 117.382 116.059 117.49 115.98 117.569C115.9 117.649 115.792 117.693 115.68 117.693H87.3428C86.0292 117.694 84.7698 118.217 83.8414 119.146C82.9129 120.076 82.3914 121.335 82.3914 122.649C82.3914 123.963 82.9129 125.223 83.8414 126.152C84.7698 127.081 86.0292 127.604 87.3428 127.605H115.68C115.792 127.605 115.9 127.65 115.98 127.729C116.059 127.808 116.104 127.916 116.104 128.028Z" fill="#43AF7B"/>
<path d="M115.426 119.642H85.7755C85.7643 119.642 85.7532 119.64 85.7429 119.635C85.7325 119.631 85.7231 119.625 85.7152 119.617C85.7073 119.609 85.701 119.6 85.6967 119.589C85.6924 119.579 85.6902 119.568 85.6902 119.557C85.6902 119.546 85.6924 119.535 85.6967 119.524C85.701 119.514 85.7073 119.505 85.7152 119.497C85.7231 119.489 85.7325 119.483 85.7429 119.479C85.7532 119.474 85.7643 119.472 85.7755 119.472H115.426C115.448 119.472 115.47 119.481 115.485 119.497C115.501 119.513 115.51 119.535 115.51 119.557C115.51 119.579 115.501 119.601 115.485 119.617C115.47 119.633 115.448 119.642 115.426 119.642Z" fill="#CCCCCC"/>
<path d="M115.426 121.675H85.7755C85.7643 121.675 85.7532 121.673 85.7429 121.669C85.7325 121.664 85.7231 121.658 85.7152 121.65C85.7073 121.642 85.701 121.633 85.6967 121.623C85.6924 121.612 85.6902 121.601 85.6902 121.59C85.6902 121.579 85.6924 121.568 85.6967 121.558C85.701 121.547 85.7073 121.538 85.7152 121.53C85.7231 121.522 85.7325 121.516 85.7429 121.512C85.7532 121.507 85.7643 121.505 85.7755 121.505H115.426C115.448 121.506 115.47 121.515 115.485 121.53C115.501 121.546 115.51 121.568 115.51 121.59C115.51 121.612 115.501 121.634 115.485 121.65C115.47 121.666 115.448 121.675 115.426 121.675Z" fill="#CCCCCC"/>
<path d="M115.426 123.708H85.7755C85.7643 123.708 85.7532 123.706 85.7429 123.702C85.7325 123.698 85.7231 123.691 85.7152 123.683C85.7073 123.676 85.701 123.666 85.6967 123.656C85.6924 123.646 85.6902 123.634 85.6902 123.623C85.6902 123.612 85.6924 123.601 85.6967 123.591C85.701 123.58 85.7073 123.571 85.7152 123.563C85.7231 123.555 85.7325 123.549 85.7429 123.545C85.7532 123.541 85.7643 123.538 85.7755 123.539H115.426C115.448 123.539 115.47 123.548 115.485 123.564C115.501 123.579 115.51 123.601 115.51 123.623C115.51 123.646 115.501 123.667 115.485 123.683C115.47 123.699 115.448 123.708 115.426 123.708Z" fill="#CCCCCC"/>
<path d="M115.426 125.741H85.7755C85.7643 125.741 85.7532 125.739 85.7429 125.735C85.7325 125.731 85.7231 125.724 85.7152 125.717C85.7073 125.709 85.701 125.699 85.6967 125.689C85.6924 125.679 85.6902 125.668 85.6902 125.656C85.6902 125.645 85.6924 125.634 85.6967 125.624C85.701 125.614 85.7073 125.604 85.7152 125.596C85.7231 125.588 85.7325 125.582 85.7429 125.578C85.7532 125.574 85.7643 125.572 85.7755 125.572H115.426C115.448 125.572 115.47 125.581 115.485 125.597C115.501 125.613 115.51 125.634 115.51 125.656C115.51 125.679 115.501 125.7 115.485 125.716C115.47 125.732 115.448 125.741 115.426 125.741Z" fill="#CCCCCC"/>
<path d="M110.225 105.497V116.51H82.6329C81.8936 116.536 81.1568 116.413 80.4662 116.148C79.7757 115.882 79.1456 115.481 78.6135 114.967C78.0815 114.453 77.6583 113.837 77.3693 113.157C77.0803 112.476 76.9314 111.744 76.9314 111.004C76.9314 110.264 77.0803 109.532 77.3693 108.851C77.6583 108.17 78.0815 107.554 78.6135 107.041C79.1456 106.527 79.7757 106.125 80.4662 105.86C81.1568 105.595 81.8936 105.472 82.6329 105.497H110.225Z" fill="#F2F2F2"/>
<path d="M110.902 116.426C110.902 116.538 110.858 116.646 110.778 116.725C110.699 116.805 110.591 116.849 110.479 116.849H82.1414C81.3793 116.849 80.6247 116.699 79.9207 116.407C79.2166 116.116 78.5769 115.688 78.038 115.15C77.4992 114.611 77.0717 113.971 76.7801 113.267C76.4885 112.563 76.3384 111.808 76.3384 111.046C76.3384 110.284 76.4885 109.53 76.7801 108.825C77.0717 108.121 77.4992 107.482 78.038 106.943C78.5769 106.404 79.2166 105.977 79.9207 105.685C80.6247 105.393 81.3793 105.243 82.1414 105.243H110.479C110.591 105.243 110.699 105.288 110.778 105.367C110.858 105.447 110.902 105.554 110.902 105.667C110.902 105.779 110.858 105.887 110.778 105.966C110.699 106.046 110.591 106.09 110.479 106.09H82.1414C80.8278 106.092 79.5684 106.614 78.6399 107.543C77.7115 108.473 77.19 109.733 77.19 111.046C77.19 112.36 77.7115 113.62 78.6399 114.549C79.5684 115.478 80.8278 116.001 82.1414 116.002H110.479C110.591 116.002 110.699 116.047 110.778 116.126C110.858 116.206 110.902 116.313 110.902 116.426Z" fill="#3F3D56"/>
<path d="M110.224 108.039H80.5741C80.5629 108.039 80.5518 108.037 80.5415 108.033C80.5311 108.028 80.5217 108.022 80.5138 108.014C80.5059 108.006 80.4996 107.997 80.4953 107.987C80.491 107.976 80.4888 107.965 80.4888 107.954C80.4888 107.943 80.491 107.932 80.4953 107.922C80.4996 107.911 80.5059 107.902 80.5138 107.894C80.5217 107.886 80.5311 107.88 80.5415 107.876C80.5518 107.871 80.5629 107.869 80.5741 107.869H110.224C110.247 107.87 110.268 107.879 110.284 107.894C110.3 107.91 110.309 107.932 110.309 107.954C110.309 107.976 110.3 107.998 110.284 108.014C110.268 108.03 110.247 108.039 110.224 108.039Z" fill="#CCCCCC"/>
<path d="M110.224 110.072H80.5741C80.5629 110.072 80.5518 110.07 80.5415 110.066C80.5311 110.061 80.5217 110.055 80.5138 110.047C80.5059 110.039 80.4996 110.03 80.4953 110.02C80.491 110.009 80.4888 109.998 80.4888 109.987C80.4888 109.976 80.491 109.965 80.4953 109.955C80.4996 109.944 80.5059 109.935 80.5138 109.927C80.5217 109.919 80.5311 109.913 80.5415 109.909C80.5518 109.905 80.5629 109.902 80.5741 109.903H110.224C110.247 109.903 110.268 109.912 110.284 109.928C110.3 109.943 110.309 109.965 110.309 109.987C110.309 110.01 110.3 110.031 110.284 110.047C110.268 110.063 110.247 110.072 110.224 110.072Z" fill="#CCCCCC"/>
<path d="M110.224 112.105H80.5741C80.5629 112.105 80.5518 112.103 80.5415 112.099C80.5311 112.095 80.5217 112.088 80.5138 112.081C80.5059 112.073 80.4996 112.063 80.4953 112.053C80.491 112.043 80.4888 112.032 80.4888 112.02C80.4888 112.009 80.491 111.998 80.4953 111.988C80.4996 111.978 80.5059 111.968 80.5138 111.96C80.5217 111.952 80.5311 111.946 80.5415 111.942C80.5518 111.938 80.5629 111.936 80.5741 111.936H110.224C110.247 111.936 110.268 111.945 110.284 111.961C110.3 111.977 110.309 111.998 110.309 112.02C110.309 112.043 110.3 112.064 110.284 112.08C110.268 112.096 110.247 112.105 110.224 112.105Z" fill="#CCCCCC"/>
<path d="M110.224 114.138H80.5741C80.5629 114.138 80.5518 114.136 80.5415 114.132C80.5311 114.128 80.5217 114.122 80.5138 114.114C80.5059 114.106 80.4996 114.096 80.4953 114.086C80.491 114.076 80.4888 114.065 80.4888 114.054C80.4888 114.042 80.491 114.031 80.4953 114.021C80.4996 114.011 80.5059 114.001 80.5138 113.993C80.5217 113.986 80.5311 113.979 80.5415 113.975C80.5518 113.971 80.5629 113.969 80.5741 113.969H110.224C110.247 113.969 110.268 113.978 110.284 113.994C110.3 114.01 110.309 114.031 110.309 114.054C110.309 114.076 110.3 114.097 110.284 114.113C110.268 114.129 110.247 114.138 110.224 114.138Z" fill="#CCCCCC"/>
<path d="M142.322 167.258V157.656C142.322 157.232 142.154 156.825 141.853 156.524C141.553 156.224 141.146 156.056 140.722 156.056H104.313C103.888 156.056 103.481 156.224 103.181 156.524C102.881 156.825 102.712 157.232 102.712 157.656V167.258H142.322Z" fill="#CCCCCC"/>
<path d="M142.322 170.859H102.712V183.262H142.322V170.859Z" fill="#CCCCCC"/>
<path d="M102.712 186.863V196.466C102.712 196.89 102.881 197.297 103.181 197.597C103.481 197.897 103.888 198.066 104.313 198.066H140.722C141.146 198.066 141.553 197.897 141.853 197.597C142.154 197.297 142.322 196.89 142.322 196.466V186.863H102.712Z" fill="#CCCCCC"/>
<path d="M122.317 163.257C122.98 163.257 123.518 162.72 123.518 162.057C123.518 161.394 122.98 160.857 122.317 160.857C121.654 160.857 121.117 161.394 121.117 162.057C121.117 162.72 121.654 163.257 122.317 163.257Z" fill="white"/>
<path d="M122.317 179.261C122.98 179.261 123.518 178.724 123.518 178.061C123.518 177.398 122.98 176.861 122.317 176.861C121.654 176.861 121.117 177.398 121.117 178.061C121.117 178.724 121.654 179.261 122.317 179.261Z" fill="white"/>
<path d="M122.381 194.926C123.044 194.926 123.582 194.389 123.582 193.726C123.582 193.063 123.044 192.526 122.381 192.526C121.719 192.526 121.181 193.063 121.181 193.726C121.181 194.389 121.719 194.926 122.381 194.926Z" fill="white"/>
<path d="M137.831 145.107V156.12H110.24C109.501 156.146 108.764 156.022 108.073 155.757C107.383 155.492 106.753 155.091 106.22 154.577C105.688 154.063 105.265 153.447 104.976 152.766C104.687 152.085 104.538 151.353 104.538 150.614C104.538 149.874 104.687 149.142 104.976 148.461C105.265 147.78 105.688 147.164 106.22 146.65C106.753 146.137 107.383 145.735 108.073 145.47C108.764 145.205 109.501 145.081 110.24 145.107H137.831Z" fill="#F2F2F2"/>
<path d="M138.509 156.035C138.509 156.148 138.464 156.255 138.385 156.335C138.306 156.414 138.198 156.459 138.086 156.459H109.748C108.986 156.46 108.231 156.31 107.526 156.019C106.821 155.727 106.181 155.3 105.642 154.761C105.102 154.222 104.675 153.582 104.383 152.878C104.091 152.173 103.94 151.418 103.94 150.656C103.94 149.893 104.091 149.139 104.383 148.434C104.675 147.73 105.102 147.09 105.642 146.551C106.181 146.012 106.821 145.585 107.526 145.293C108.231 145.002 108.986 144.852 109.748 144.853H138.086C138.198 144.853 138.306 144.898 138.385 144.977C138.464 145.056 138.509 145.164 138.509 145.277C138.509 145.389 138.464 145.497 138.385 145.576C138.306 145.655 138.198 145.7 138.086 145.7H109.748C108.435 145.701 107.175 146.224 106.247 147.153C105.318 148.082 104.797 149.342 104.797 150.656C104.797 151.97 105.318 153.229 106.247 154.159C107.175 155.088 108.435 155.611 109.748 155.612H138.086C138.198 155.612 138.306 155.656 138.385 155.736C138.464 155.815 138.509 155.923 138.509 156.035Z" fill="#3F3D56"/>
<path d="M137.831 147.649H108.181C108.17 147.649 108.159 147.646 108.148 147.642C108.138 147.638 108.129 147.632 108.121 147.624C108.113 147.616 108.106 147.607 108.102 147.596C108.098 147.586 108.096 147.575 108.096 147.564C108.096 147.553 108.098 147.542 108.102 147.531C108.106 147.521 108.113 147.512 108.121 147.504C108.129 147.496 108.138 147.49 108.148 147.485C108.159 147.481 108.17 147.479 108.181 147.479H137.831C137.854 147.479 137.875 147.488 137.891 147.504C137.907 147.52 137.916 147.541 137.916 147.564C137.916 147.586 137.907 147.608 137.891 147.624C137.875 147.639 137.854 147.648 137.831 147.649Z" fill="#CCCCCC"/>
<path d="M137.831 149.682H108.181C108.17 149.682 108.159 149.68 108.148 149.675C108.138 149.671 108.129 149.665 108.121 149.657C108.113 149.649 108.106 149.64 108.102 149.63C108.098 149.619 108.096 149.608 108.096 149.597C108.096 149.586 108.098 149.575 108.102 149.564C108.106 149.554 108.113 149.545 108.121 149.537C108.129 149.529 108.138 149.523 108.148 149.519C108.159 149.514 108.17 149.512 108.181 149.512H137.831C137.854 149.512 137.875 149.521 137.891 149.537C137.907 149.553 137.916 149.575 137.916 149.597C137.916 149.619 137.907 149.641 137.891 149.657C137.875 149.673 137.854 149.682 137.831 149.682Z" fill="#CCCCCC"/>
<path d="M137.831 151.715H108.181C108.17 151.715 108.159 151.713 108.148 151.709C108.138 151.704 108.129 151.698 108.121 151.69C108.113 151.682 108.106 151.673 108.102 151.663C108.098 151.652 108.096 151.641 108.096 151.63C108.096 151.619 108.098 151.608 108.102 151.598C108.106 151.587 108.113 151.578 108.121 151.57C108.129 151.562 108.138 151.556 108.148 151.552C108.159 151.548 108.17 151.545 108.181 151.545H137.831C137.854 151.546 137.875 151.555 137.891 151.57C137.907 151.586 137.916 151.608 137.916 151.63C137.916 151.653 137.907 151.674 137.891 151.69C137.875 151.706 137.854 151.715 137.831 151.715Z" fill="#CCCCCC"/>
<path d="M137.831 153.748H108.181C108.17 153.748 108.159 153.746 108.148 153.742C108.138 153.738 108.129 153.731 108.121 153.723C108.113 153.716 108.106 153.706 108.102 153.696C108.098 153.686 108.096 153.675 108.096 153.663C108.096 153.652 108.098 153.641 108.102 153.631C108.106 153.62 108.113 153.611 108.121 153.603C108.129 153.595 108.138 153.589 108.148 153.585C108.159 153.581 108.17 153.579 108.181 153.579H137.831C137.854 153.579 137.875 153.588 137.891 153.604C137.907 153.62 137.916 153.641 137.916 153.663C137.916 153.686 137.907 153.707 137.891 153.723C137.875 153.739 137.854 153.748 137.831 153.748Z" fill="#CCCCCC"/>
<path d="M100.635 73.2266V3.00932C100.636 2.21148 100.953 1.44657 101.517 0.882414C102.081 0.318254 102.846 0.000907519 103.644 0H159.149C159.947 0.000912803 160.712 0.318262 161.276 0.88242C161.84 1.44658 162.158 2.21148 162.159 3.00932V73.2266C162.158 74.0245 161.84 74.7894 161.276 75.3535C160.712 75.9177 159.947 76.235 159.149 76.2359H103.644C102.846 76.235 102.081 75.9177 101.517 75.3535C100.953 74.7894 100.636 74.0245 100.635 73.2266ZM103.644 0.668738C103.024 0.669433 102.429 0.916253 101.99 1.35505C101.551 1.79384 101.304 2.38877 101.303 3.00932V73.2266C101.304 73.8472 101.551 74.4421 101.99 74.8809C102.429 75.3197 103.024 75.5665 103.644 75.5672H159.149C159.77 75.5665 160.365 75.3197 160.803 74.8809C161.242 74.4421 161.489 73.8472 161.49 73.2266V3.00932C161.489 2.38877 161.242 1.79384 160.803 1.35505C160.365 0.916254 159.77 0.669434 159.149 0.668738H103.644Z" fill="#E6E6E6"/>
<path d="M134.509 32.247V17.8292C134.509 17.4303 134.668 17.0478 134.95 16.7658C135.232 16.4837 135.615 16.325 136.014 16.3246H148.231C148.63 16.325 149.013 16.4837 149.295 16.7658C149.577 17.0478 149.736 17.4303 149.736 17.8292V32.247C149.736 32.646 149.577 33.0284 149.295 33.3105C149.013 33.5926 148.63 33.7513 148.231 33.7517H136.014C135.615 33.7513 135.232 33.5926 134.95 33.3105C134.668 33.0284 134.509 32.646 134.509 32.247Z" fill="#43AF7B"/>
<path d="M110.769 38.9344V24.5166C110.769 24.1177 110.928 23.7352 111.21 23.4531C111.492 23.171 111.875 23.0124 112.274 23.0119H124.492C124.89 23.0124 125.273 23.171 125.555 23.4531C125.837 23.7352 125.996 24.1177 125.996 24.5166V38.9344C125.996 39.3333 125.837 39.7158 125.555 39.9979C125.273 40.28 124.89 40.4386 124.492 40.4391H112.274C111.875 40.4386 111.492 40.28 111.21 39.9979C110.928 39.7158 110.769 39.3333 110.769 38.9344Z" fill="#CCCCCC"/>
<path d="M129.828 59.3309V44.913C129.828 44.5141 129.987 44.1317 130.269 43.8496C130.551 43.5675 130.934 43.4088 131.333 43.4084H143.55C143.949 43.4088 144.332 43.5675 144.614 43.8496C144.896 44.1317 145.055 44.5141 145.055 44.913V59.3309C145.055 59.7298 144.896 60.1123 144.614 60.3943C144.332 60.6764 143.949 60.8351 143.55 60.8355H131.333C130.934 60.8351 130.551 60.6764 130.269 60.3943C129.987 60.1123 129.828 59.7298 129.828 59.3309Z" fill="#FF6584"/>
<path d="M202.841 125.248H190.27C190.15 125.248 190.033 125.275 189.926 125.328L186.753 126.917C186.648 126.961 186.559 127.035 186.497 127.13C186.434 127.224 186.401 127.335 186.401 127.449C186.401 127.562 186.434 127.673 186.497 127.768C186.559 127.862 186.648 127.936 186.753 127.981L189.926 129.569C190.033 129.622 190.15 129.649 190.27 129.649H202.841C203.014 129.659 203.184 129.601 203.315 129.486C203.445 129.371 203.525 129.21 203.537 129.037V125.86C203.525 125.687 203.445 125.526 203.315 125.411C203.184 125.297 203.014 125.238 202.841 125.248Z" fill="#3F3D56"/>
<path d="M203.537 125.86V129.037C203.525 129.21 203.445 129.371 203.315 129.486C203.184 129.601 203.014 129.659 202.841 129.649H200.336V125.248H202.841C203.014 125.238 203.184 125.297 203.315 125.411C203.445 125.526 203.525 125.687 203.537 125.86Z" fill="#43AF7B"/>
<path d="M202.746 101.482C203.316 101.236 203.931 101.114 204.551 101.122C205.171 101.131 205.782 101.27 206.345 101.531C206.907 101.793 207.408 102.17 207.815 102.638C208.221 103.106 208.524 103.655 208.704 104.249C208.76 104.437 208.803 104.629 208.832 104.823L226.412 113.54L230.48 110.844L235.542 116.672L229.33 121.717C228.583 122.319 227.662 122.664 226.703 122.701C225.744 122.738 224.799 122.465 224.008 121.922L206.172 109.588C206.039 109.644 205.904 109.694 205.766 109.736C205.172 109.915 204.548 109.968 203.932 109.889C203.317 109.81 202.726 109.602 202.196 109.279C201.667 108.955 201.212 108.524 200.861 108.012C200.51 107.501 200.272 106.921 200.161 106.311C200.128 106.134 200.106 105.955 200.096 105.775C200.046 104.874 200.274 103.98 200.747 103.213C201.221 102.445 201.919 101.841 202.746 101.482Z" fill="#FFB8B8"/>
<path d="M239.361 155.155H220.153C220.153 155.707 200.356 156.155 200.356 156.155C200.045 156.389 199.762 156.658 199.512 156.955C198.76 157.852 198.349 158.986 198.351 160.156V160.956C198.352 162.283 198.879 163.554 199.816 164.492C200.754 165.43 202.026 165.957 203.352 165.958H239.361C240.687 165.956 241.959 165.429 242.896 164.491C243.834 163.554 244.361 162.282 244.362 160.956V160.156C244.361 158.83 243.833 157.559 242.896 156.622C241.958 155.684 240.687 155.157 239.361 155.155Z" fill="#3F3D56"/>
<path d="M218.467 199.367H223.668V165.759H218.467V199.367Z" fill="#3F3D56"/>
<path d="M203.663 199.184C203.663 199.746 211.545 199.402 221.267 199.402C230.99 199.402 238.872 199.746 238.872 199.184C238.872 198.622 230.99 194.166 221.267 194.166C211.545 194.166 203.663 198.622 203.663 199.184Z" fill="#3F3D56"/>
<path d="M208.358 195.245L203.454 195.245L201.12 182.523L208.359 182.523L208.358 195.245Z" fill="#FFB8B8"/>
<path d="M209.609 200L193.793 199.999V199.799C193.793 198.991 193.952 198.19 194.262 197.444C194.571 196.697 195.025 196.018 195.596 195.446C196.168 194.875 196.847 194.421 197.593 194.112C198.34 193.803 199.141 193.643 199.949 193.643H199.95L209.61 193.644L209.609 200Z" fill="#2F2E41"/>
<path d="M201.022 187.356L191.243 165.428C190.427 163.58 190.336 161.492 190.99 159.58C191.644 157.668 192.994 156.073 194.771 155.112L215.982 143.738L225.661 142.914L234.589 142.103L234.653 142.212C234.736 142.351 236.655 145.667 235.358 149.302C234.373 152.06 231.813 154.214 227.748 155.705C218.26 159.184 207.3 162.157 203.028 163.274C202.839 163.322 202.662 163.41 202.51 163.531C202.358 163.652 202.232 163.805 202.143 163.978C202.053 164.149 202 164.337 201.987 164.529C201.973 164.722 202 164.916 202.064 165.098L211.149 185.508C211.244 185.767 211.278 186.045 211.249 186.319C211.22 186.593 211.128 186.857 210.981 187.09C210.834 187.323 210.635 187.519 210.4 187.663C210.165 187.807 209.9 187.895 209.625 187.921L202.837 188.415C202.779 188.421 202.722 188.423 202.665 188.423C202.317 188.423 201.977 188.322 201.685 188.133C201.394 187.944 201.163 187.674 201.022 187.356Z" fill="#2F2E41"/>
<path d="M210.759 195.245L205.854 195.245L203.52 182.523L210.76 182.523L210.759 195.245Z" fill="#FFB8B8"/>
<path d="M212.01 200L196.194 199.999V199.799C196.194 198.991 196.353 198.19 196.662 197.444C196.972 196.697 197.425 196.018 197.997 195.446C198.569 194.875 199.247 194.421 199.994 194.112C200.741 193.803 201.542 193.643 202.35 193.643H202.35L212.01 193.644L212.01 200Z" fill="#2F2E41"/>
<path d="M203.823 188.556L194.044 166.628C193.227 164.78 193.137 162.692 193.791 160.78C194.445 158.868 195.795 157.273 197.572 156.312L218.783 144.938L228.462 144.115L237.39 143.303L237.454 143.412C237.536 143.551 239.456 146.867 238.159 150.503C237.174 153.26 234.614 155.414 230.549 156.905C221.061 160.384 210.1 163.357 205.828 164.474C205.64 164.522 205.463 164.61 205.311 164.731C205.158 164.853 205.033 165.005 204.944 165.178C204.854 165.349 204.801 165.537 204.787 165.73C204.774 165.922 204.8 166.116 204.865 166.298L213.95 186.709C214.045 186.968 214.079 187.245 214.05 187.519C214.021 187.793 213.929 188.057 213.782 188.29C213.634 188.523 213.436 188.719 213.201 188.863C212.966 189.007 212.701 189.096 212.426 189.121L205.638 189.615C205.58 189.621 205.523 189.624 205.466 189.624C205.118 189.623 204.778 189.523 204.486 189.333C204.195 189.144 203.964 188.874 203.823 188.556Z" fill="#2F2E41"/>
<path d="M198.949 121.568C194.839 116.102 191.591 110.039 189.316 103.591C189.184 103.205 189.194 102.785 189.343 102.405C189.491 102.026 189.77 101.712 190.129 101.518L204.191 93.9838C204.418 93.861 204.671 93.7917 204.929 93.7812C205.187 93.7707 205.444 93.8193 205.681 93.9233C205.922 94.0281 206.136 94.1864 206.307 94.3864C206.478 94.5863 206.6 94.8226 206.666 95.0772C208.303 101.291 211.379 107.033 215.646 111.838C215.822 112.033 215.951 112.266 216.023 112.519C216.095 112.772 216.108 113.038 216.062 113.297C216.017 113.551 215.915 113.792 215.763 114.002C215.612 114.211 215.414 114.383 215.186 114.504L201.124 122.039C200.765 122.23 200.348 122.288 199.95 122.202C199.552 122.116 199.197 121.891 198.949 121.568Z" fill="#CCCCCC"/>
<path d="M199.908 120.847C199.984 120.941 200.09 121.006 200.208 121.031C200.327 121.055 200.45 121.037 200.557 120.981L214.619 113.446C214.687 113.41 214.746 113.359 214.791 113.297C214.837 113.235 214.867 113.163 214.88 113.087C214.895 113.007 214.89 112.924 214.868 112.846C214.845 112.768 214.805 112.696 214.75 112.636C210.357 107.69 207.19 101.779 205.505 95.3816C205.485 95.3025 205.448 95.2291 205.395 95.167C205.342 95.1048 205.276 95.0557 205.201 95.0235C205.131 94.992 205.054 94.9773 204.977 94.9804C204.9 94.9836 204.825 95.0047 204.757 95.0419L190.696 102.576C190.589 102.634 190.506 102.727 190.461 102.839C190.416 102.951 190.411 103.076 190.448 103.191C192.682 109.525 195.872 115.479 199.908 120.847Z" fill="white"/>
<path d="M245.663 119.558L234.651 123.743L231.962 116.274C231.605 115.282 231.61 114.196 231.976 113.208C232.343 112.22 233.046 111.393 233.963 110.873C234.891 110.347 235.976 110.171 237.023 110.375C238.069 110.579 239.008 111.151 239.67 111.987L245.663 119.558Z" fill="#43AF7B"/>
<path d="M217.653 149.149C217.421 148.985 217.227 148.774 217.083 148.529C216.939 148.284 216.849 148.012 216.819 147.729C215.408 134.562 216.391 124.258 219.822 116.228C220.426 114.843 221.337 113.612 222.485 112.63C223.633 111.647 224.989 110.938 226.45 110.554L235.352 110.105L235.398 110.127C237.407 111.111 239.046 112.716 240.07 114.704C241.095 116.693 241.452 118.958 241.088 121.165C238.224 128.712 235.827 136.57 237.655 142.909C237.732 143.174 237.754 143.452 237.721 143.726C237.688 144 237.6 144.264 237.462 144.503C237.328 144.734 237.148 144.935 236.934 145.094C236.72 145.253 236.475 145.366 236.215 145.427L219.26 149.46C218.985 149.525 218.7 149.532 218.423 149.478C218.145 149.424 217.883 149.312 217.653 149.149Z" fill="#43AF7B"/>
<path d="M232.382 106.78C237.809 106.78 242.208 102.38 242.208 96.9532C242.208 91.526 237.809 87.1263 232.382 87.1263C226.954 87.1263 222.555 91.526 222.555 96.9532C222.555 102.38 226.954 106.78 232.382 106.78Z" fill="#FFB8B8"/>
<path d="M205.114 104.736L197.455 108.117C197.164 108.245 196.834 108.253 196.537 108.138C196.24 108.023 196.001 107.795 195.872 107.504L195.683 107.074C195.555 106.783 195.547 106.453 195.662 106.156C195.777 105.86 196.005 105.621 196.296 105.492L203.955 102.111C204.246 101.983 204.576 101.975 204.873 102.09C205.17 102.205 205.409 102.433 205.538 102.724L205.727 103.154C205.855 103.445 205.863 103.775 205.748 104.072C205.633 104.368 205.405 104.607 205.114 104.736Z" fill="#CCCCCC"/>
<path d="M207.914 109.938L200.256 113.318C199.965 113.446 199.634 113.454 199.338 113.339C199.041 113.224 198.802 112.996 198.673 112.705L198.484 112.276C198.355 111.985 198.348 111.654 198.463 111.358C198.578 111.061 198.806 110.822 199.097 110.693L206.756 107.312C207.047 107.184 207.377 107.177 207.674 107.292C207.97 107.407 208.209 107.635 208.338 107.926L208.528 108.355C208.656 108.646 208.663 108.976 208.548 109.273C208.433 109.57 208.205 109.809 207.914 109.938Z" fill="#CCCCCC"/>
<path d="M213.82 130.253L196.747 116.784C196.611 116.832 196.472 116.872 196.332 116.906C195.729 117.047 195.104 117.06 194.496 116.943C193.888 116.826 193.312 116.583 192.804 116.229C192.293 115.875 191.863 115.416 191.544 114.882C191.225 114.349 191.023 113.753 190.953 113.135C190.838 112.148 191.061 111.15 191.585 110.305C192.108 109.46 192.902 108.816 193.837 108.479C194.421 108.269 195.042 108.186 195.661 108.233C196.279 108.281 196.88 108.458 197.425 108.754C197.97 109.05 198.446 109.458 198.823 109.951C199.199 110.444 199.467 111.011 199.609 111.615C199.653 111.806 199.684 112 199.701 112.196L216.698 122.001L220.927 119.566L225.613 125.7L219.046 130.381C218.277 130.924 217.353 131.205 216.412 131.182C215.471 131.16 214.562 130.834 213.82 130.253Z" fill="#FFB8B8"/>
<path d="M227.696 127.61L217.954 120.986L222.533 114.501C223.141 113.64 224.033 113.022 225.053 112.755C226.073 112.489 227.154 112.592 228.105 113.045C229.068 113.504 229.835 114.292 230.267 115.266C230.7 116.241 230.769 117.338 230.464 118.359L227.696 127.61Z" fill="#43AF7B"/>
<path d="M228.779 95.4896C226.253 97.2182 222.937 98.9951 220.357 97.1543C218.663 95.9455 218.13 93.7072 218.816 91.743C220.052 88.2107 223.445 86.6556 226.691 85.4636C230.909 83.914 235.503 82.6812 239.858 83.791C244.213 84.9007 248.063 89.1175 247.276 93.5426C246.644 97.1011 243.287 100.062 243.764 103.645C244.243 107.251 248.298 109.149 251.878 109.793C255.458 110.437 259.464 110.645 262.037 113.216C265.319 116.496 264.5 122.36 261.411 125.823C258.323 129.286 253.663 130.856 249.147 131.923C243.164 133.337 236.692 134.081 231.01 131.734C225.327 129.387 220.905 123.07 222.551 117.146C223.246 114.644 224.884 112.53 226.467 110.471C228.05 108.412 229.653 106.259 230.257 103.734C230.76 101.629 230.388 99.1851 228.992 97.6062C228.738 97.3299 228.579 96.9802 228.536 96.6074C228.493 96.2346 228.57 95.8578 228.754 95.5312L228.779 95.4896Z" fill="#2F2E41"/>
<path d="M44.2056 143.235C41.6734 144.125 38.9547 144.348 36.3113 143.882C33.6679 143.416 31.189 142.278 29.1134 140.576C23.8273 136.139 22.17 128.83 20.8214 122.062C19.4919 115.389 18.1623 108.715 16.8328 102.042L25.1835 107.792C31.1888 111.927 37.3294 116.195 41.4875 122.184C45.6456 128.174 47.4606 136.35 44.1197 142.831" fill="#E6E6E6"/>
<path d="M43.4916 167.472C44.3368 161.316 45.2059 155.08 44.6131 148.858C44.0865 143.331 42.4006 137.934 38.9681 133.508C37.1462 131.163 34.9293 129.154 32.417 127.572C31.7619 127.158 31.1589 128.196 31.8112 128.608C36.1581 131.355 39.5204 135.412 41.4131 140.193C43.5035 145.511 43.8393 151.307 43.479 156.955C43.2612 160.371 42.7995 163.764 42.3342 167.153C42.2975 167.306 42.3204 167.468 42.3982 167.605C42.476 167.742 42.603 167.844 42.7534 167.891C42.9068 167.933 43.0704 167.912 43.2086 167.833C43.3468 167.755 43.4485 167.625 43.4916 167.472Z" fill="#F2F2F2"/>
<path d="M35.351 156.578C34.265 158.229 32.7722 159.572 31.0164 160.478C29.2607 161.384 27.3011 161.823 25.3266 161.752C20.2521 161.511 16.0216 157.969 12.2133 154.607L0.949219 144.661L8.40418 144.305C13.7653 144.048 19.2648 143.809 24.3712 145.462C29.4775 147.115 34.1868 151.094 35.1205 156.38" fill="#E6E6E6"/>
<path d="M45.8802 171.011C41.8121 163.813 37.0935 155.813 28.6621 153.256C26.3177 152.547 23.8595 152.294 21.4199 152.508C20.651 152.574 20.843 153.76 21.6105 153.694C25.6999 153.354 29.7814 154.434 33.1679 156.751C36.4267 158.969 38.964 162.053 41.1115 165.323C42.427 167.327 43.6053 169.415 44.7838 171.5C45.1604 172.166 46.2612 171.685 45.8802 171.011Z" fill="#F2F2F2"/>
<path d="M52.3986 178.588C52.2616 177 51.6913 175.479 50.75 174.193C49.8087 172.906 48.5325 171.903 47.0602 171.291V167.13H40.0805V171.422C38.6807 172.064 37.4761 173.065 36.5893 174.324C35.7026 175.582 35.1655 177.054 35.0328 178.588L33.3916 197.666H54.0399L52.3986 178.588Z" fill="#F2F2F2"/>
</g>
<defs>
<clipPath id="clip0_8192_471">
<rect width="276.868" height="200" fill="white" transform="translate(0.565918)"/>
</clipPath>
</defs>
</svg>
