<svg width="36" height="32" viewBox="0 0 36 32" fill="none" xmlns="http://www.w3.org/2000/svg">
<path d="M18.415 4.458C20.9148 1.95825 22.9812 1.125 25.9143 1.125C28.3452 1.125 30.6765 2.09067 32.3954 3.80959C34.1143 5.5285 35.08 7.85984 35.08 10.2908C35.08 14.107 32.5636 17.0234 30.0805 19.4565L18.415 31.122L6.7495 19.4565C4.24975 17.0401 1.75 14.1237 1.75 10.2908C1.75 7.85984 2.71567 5.5285 4.43459 3.80959C6.1535 2.09067 8.48484 1.125 10.9158 1.125C13.8488 1.125 15.9153 1.95825 18.415 4.458ZM18.415 4.458L13.4822 9.39084C13.1436 9.72698 12.8748 10.1268 12.6914 10.5673C12.5081 11.0077 12.4136 11.4801 12.4136 11.9573C12.4136 12.4344 12.5081 12.9068 12.6914 13.3472C12.8748 13.7877 13.1436 14.1875 13.4822 14.5237C14.8487 15.8902 17.0318 15.9402 18.4817 14.6403L21.9313 11.474C22.796 10.6894 23.9218 10.2547 25.0893 10.2547C26.2569 10.2547 27.3827 10.6894 28.2473 11.474L33.1802 15.9069M28.414 21.123L25.081 17.79M23.4145 26.1225L20.0815 22.7895" stroke="url(#paint0_linear_8507_818)" stroke-width="1.65" stroke-linecap="round" stroke-linejoin="round"/>
<defs>
<linearGradient id="paint0_linear_8507_818" x1="2.053" y1="0.973499" x2="34.777" y2="31.2735" gradientUnits="userSpaceOnUse">
<stop stop-color="#43AF7B"/>
<stop offset="1" stop-color="#1ABC9C"/>
</linearGradient>
</defs>
</svg>
