<svg width="36" height="36" viewBox="0 0 36 36" fill="none" xmlns="http://www.w3.org/2000/svg">
<path d="M4.66671 34.6667H31.3334C32.2174 34.6667 33.0653 34.3155 33.6904 33.6904C34.3155 33.0653 34.6667 32.2174 34.6667 31.3334V4.66671C34.6667 3.78265 34.3155 2.93481 33.6904 2.30968C33.0653 1.68456 32.2174 1.33337 31.3334 1.33337H11.3334C10.4493 1.33337 9.60147 1.68456 8.97635 2.30968C8.35123 2.93481 8.00004 3.78265 8.00004 4.66671V31.3334C8.00004 32.2174 7.64885 33.0653 7.02373 33.6904C6.39861 34.3155 5.55076 34.6667 4.66671 34.6667ZM4.66671 34.6667C3.78265 34.6667 2.93481 34.3155 2.30968 33.6904C1.68456 33.0653 1.33337 32.2174 1.33337 31.3334V16.3334C1.33337 14.5 2.83337 13 4.66671 13H8.00004M28 21.3334H14.6667M23 28H14.6667M14.6667 8.00004H28V14.6667H14.6667V8.00004Z" stroke="url(#paint0_linear_8295_142)" stroke-width="1.65" stroke-linecap="round" stroke-linejoin="round"/>
<defs>
<linearGradient id="paint0_linear_8295_142" x1="1" y1="1" x2="35" y2="35" gradientUnits="userSpaceOnUse">
<stop stop-color="#43AF7B"/>
<stop offset="1" stop-color="#1ABC9C"/>
</linearGradient>
</defs>
</svg>
