<svg width="32" height="32" viewBox="0 0 32 32" fill="none" xmlns="http://www.w3.org/2000/svg">
<path d="M29.3333 1H2.66667C1.74619 1 1 1.74619 1 2.66667V11C1 11.9205 1.74619 12.6667 2.66667 12.6667H29.3333C30.2538 12.6667 31 11.9205 31 11V2.66667C31 1.74619 30.2538 1 29.3333 1Z" stroke="url(#paint0_linear_8236_180)" stroke-width="1.66667" stroke-linecap="round" stroke-linejoin="round"/>
<path d="M14.3333 19.3333H2.66667C1.74619 19.3333 1 20.0795 1 21V29.3333C1 30.2538 1.74619 31 2.66667 31H14.3333C15.2538 31 16 30.2538 16 29.3333V21C16 20.0795 15.2538 19.3333 14.3333 19.3333Z" stroke="url(#paint1_linear_8236_180)" stroke-width="1.66667" stroke-linecap="round" stroke-linejoin="round"/>
<path d="M29.3333 19.3333H24.3333C23.4129 19.3333 22.6667 20.0795 22.6667 21V29.3333C22.6667 30.2538 23.4129 31 24.3333 31H29.3333C30.2538 31 31 30.2538 31 29.3333V21C31 20.0795 30.2538 19.3333 29.3333 19.3333Z" stroke="url(#paint2_linear_8236_180)" stroke-width="1.66667" stroke-linecap="round" stroke-linejoin="round"/>
<defs>
<linearGradient id="paint0_linear_8236_180" x1="1" y1="1" x2="31" y2="31" gradientUnits="userSpaceOnUse">
<stop stop-color="#43AF7B"/>
<stop offset="1" stop-color="#1ABC9C"/>
</linearGradient>
<linearGradient id="paint1_linear_8236_180" x1="1" y1="1" x2="31" y2="31" gradientUnits="userSpaceOnUse">
<stop stop-color="#43AF7B"/>
<stop offset="1" stop-color="#1ABC9C"/>
</linearGradient>
<linearGradient id="paint2_linear_8236_180" x1="1" y1="1" x2="31" y2="31" gradientUnits="userSpaceOnUse">
<stop stop-color="#43AF7B"/>
<stop offset="1" stop-color="#1ABC9C"/>
</linearGradient>
</defs>
</svg>
