<svg width="36" height="32" viewBox="0 0 36 32" fill="none" xmlns="http://www.w3.org/2000/svg">
<path d="M27.6667 7.66667V4.33333C27.6667 3.44928 27.3155 2.60143 26.6904 1.97631C26.0652 1.35119 25.2174 1 24.3333 1H4.33333C3.44928 1 2.60143 1.35119 1.97631 1.97631C1.35119 2.60143 1 3.44928 1 4.33333V16C1 16.8841 1.35119 17.7319 1.97631 18.357C2.60143 18.9821 3.44928 19.3333 4.33333 19.3333H17.6667M14.3333 26V19.4V24.65M9.33333 26H17.6667M27.6667 14.3333H31C32.8409 14.3333 34.3333 15.8257 34.3333 17.6667V27.6667C34.3333 29.5076 32.8409 31 31 31H27.6667C25.8257 31 24.3333 29.5076 24.3333 27.6667V17.6667C24.3333 15.8257 25.8257 14.3333 27.6667 14.3333Z" stroke="url(#paint0_linear_8236_181)" stroke-width="1.66667" stroke-linecap="round" stroke-linejoin="round"/>
<defs>
<linearGradient id="paint0_linear_8236_181" x1="0.666627" y1="-0.666657" x2="34.6666" y2="31.3333" gradientUnits="userSpaceOnUse">
<stop stop-color="#43AF7B"/>
<stop offset="1" stop-color="#1ABC9C"/>
</linearGradient>
</defs>
</svg>
