<svg width="36" height="33" viewBox="0 0 36 33" fill="none" xmlns="http://www.w3.org/2000/svg">
<path d="M28 8.33332V4.99999C28 4.11593 27.6489 3.26809 27.0237 2.64297C26.3986 2.01785 25.5508 1.66666 24.6667 1.66666H4.66671C3.78265 1.66666 2.93481 2.01785 2.30968 2.64297C1.68456 3.26809 1.33337 4.11593 1.33337 4.99999V16.6667C1.33337 17.5507 1.68456 18.3986 2.30968 19.0237C2.93481 19.6488 3.78265 20 4.66671 20H18M14.6667 26.6667V20.0667V25.3167M9.66671 26.6667H18M28 15H31.3334C33.1743 15 34.6667 16.4924 34.6667 18.3333V28.3333C34.6667 30.1743 33.1743 31.6667 31.3334 31.6667H28C26.1591 31.6667 24.6667 30.1743 24.6667 28.3333V18.3333C24.6667 16.4924 26.1591 15 28 15Z" stroke="url(#paint0_linear_8236_181)" stroke-width="1.66667" stroke-linecap="round" stroke-linejoin="round"/>
<defs>
<linearGradient id="paint0_linear_8236_181" x1="1" y1="-2.60643e-07" x2="35" y2="32" gradientUnits="userSpaceOnUse">
<stop stop-color="#43AF7B"/>
<stop offset="1" stop-color="#1ABC9C"/>
</linearGradient>
</defs>
</svg>
