<svg width="32" height="32" viewBox="0 0 32 32" fill="none" xmlns="http://www.w3.org/2000/svg">
<path d="M12.6667 31V9.33333C12.6667 8.89131 12.4911 8.46738 12.1785 8.15482C11.866 7.84226 11.442 7.66667 11 7.66667H2.66667C2.22464 7.66667 1.80072 7.84226 1.48816 8.15482C1.17559 8.46738 1 8.89131 1 9.33333V29.3333C1 29.7754 1.17559 30.1993 1.48816 30.5118C1.80072 30.8244 2.22464 31 2.66667 31H22.6667C23.1087 31 23.5326 30.8244 23.8452 30.5118C24.1577 30.1993 24.3333 29.7754 24.3333 29.3333V21C24.3333 20.558 24.1577 20.134 23.8452 19.8215C23.5326 19.5089 23.1087 19.3333 22.6667 19.3333H1M21 1H29.3333C30.2538 1 31 1.74619 31 2.66667V11C31 11.9205 30.2538 12.6667 29.3333 12.6667H21C20.0795 12.6667 19.3333 11.9205 19.3333 11V2.66667C19.3333 1.74619 20.0795 1 21 1Z" stroke="url(#paint0_linear_8236_184)" stroke-width="1.66667" stroke-linecap="round" stroke-linejoin="round"/>
<defs>
<linearGradient id="paint0_linear_8236_184" x1="1" y1="1" x2="31" y2="31" gradientUnits="userSpaceOnUse">
<stop stop-color="#43AF7B"/>
<stop offset="1" stop-color="#1ABC9C"/>
</linearGradient>
</defs>
</svg>
